0
SECTION
2
HEADER
9
$INSUNITS
70
4
9
$ACADVER
1
AC1014
9
$HANDSEED
5
FFFF
0
ENDSEC
0
SECTION
2
TABLES
0
TABLE
2
VPORT
5
8
100
AcDbSymbolTable
0
ENDTAB
0
TABLE
2
LTYPE
5
5
100
AcDbSymbolTable
0
LTYPE
5
14
100
AcDbSymbolTableRecord
100
AcDbLinetypeTableRecord
2
BYBLOCK
70
0
0
LTYPE
5
15
100
AcDbSymbolTableRecord
100
AcDbLinetypeTableRecord
2
BYLAYER
70
0
0
ENDTAB
0
TABLE
2
LAYER
5
2
100
AcDbSymbolTable
70
2
0
LAYER
5
50
100
AcDbSymbolTableRecord
100
AcDbLayerTableRecord
2
0
70
0
6
CONTINUOUS
0
ENDTAB
0
TABLE
2
STYLE
5
3
100
AcDbSymbolTable
70
1
0
STYLE
5
11
100
AcDbSymbolTableRecord
100
AcDbTextStyleTableRecord
2
STANDARD
70
0
0
ENDTAB
0
TABLE
2
VIEW
5
6
100
AcDbSymbolTable
70
0
0
ENDTAB
0
TABLE
2
UCS
5
7
100
AcDbSymbolTable
70
0
0
ENDTAB
0
TABLE
2
APPID
5
9
100
AcDbSymbolTable
70
2
0
APPID
5
12
100
AcDbSymbolTableRecord
100
AcDbRegAppTableRecord
2
ACAD
70
0
0
ENDTAB
0
TABLE
2
DIMSTYLE
5
A
100
AcDbSymbolTable
70
1
0
ENDTAB
0
TABLE
2
BLOCK_RECORD
5
1
100
AcDbSymbolTable
70
1
0
BLOCK_RECORD
5
1F
100
AcDbSymbolTableRecord
100
AcDbBlockTableRecord
2
*MODEL_SPACE
0
BLOCK_RECORD
5
1B
100
AcDbSymbolTableRecord
100
AcDbBlockTableRecord
2
*PAPER_SPACE
0
ENDTAB
0
ENDSEC
0
SECTION
2
BLOCKS
0
BLOCK
5
20
100
AcDbEntity
100
AcDbBlockBegin
2
*MODEL_SPACE
0
ENDBLK
5
21
100
AcDbEntity
100
AcDbBlockEnd
0
BLOCK
5
1C
100
AcDbEntity
100
AcDbBlockBegin
2
*PAPER_SPACE
0
ENDBLK
5
1D
100
AcDbEntity
100
AcDbBlockEnd
0
ENDSEC
0
SECTION
2
ENTITIES
0
LWPOLYLINE
5
100
100
AcDbEntity
8
0
100
AcDbPolyline
90
8
70
1
43
0.0
10
-5.5511151231257827e-16
20
1.9999999999999929
10
-47.539999999999985
20
1.9999999999999929
42
0.41421356237309243
10
-49.539999999999992
20
-5.9674487573601375e-15
10
-49.539999999999999
20
-47.000000000000014
42
0.41421356237309115
10
-47.539999999999985
20
-49.000000000000014
10
0
20
-49.000000000000014
42
0.41421356237309614
10
2.0000000000000093
20
-47.000000000000014
10
2.0000000000000018
20
0
42
0.41421356237309481
0
CIRCLE
5
101
100
AcDbEntity
8
0
100
AcDbCircle
10
-3.0000000000000018
20
-3.0000000000000004
30
0
40
1.6000000000000003
210
0
220
0
230
1
0
CIRCLE
5
102
100
AcDbEntity
8
0
100
AcDbCircle
10
-38.539999999999999
20
-1.6500000000000008
30
0
40
1.0000000000000013
210
0
220
0
230
1
0
CIRCLE
5
103
100
AcDbEntity
8
0
100
AcDbCircle
10
-38.539999999999992
20
-45.000000000000007
30
0
40
1.0000000000000013
210
0
220
0
230
1
0
CIRCLE
5
104
100
AcDbEntity
8
0
100
AcDbCircle
10
-3
20
-44.000000655651093
30
0
40
1.5999999999999974
210
0
220
0
230
1
0
CIRCLE
5
105
100
AcDbEntity
8
0
100
AcDbCircle
10
-13.859999999999919
20
-40.280000000000044
30
0
40
3.0000000000000004
210
0
220
0
230
1
0
LWPOLYLINE
5
106
100
AcDbEntity
8
0
100
AcDbPolyline
90
9
70
1
43
0.0
10
-16.574046901425522
20
-33.843996443421879
10
-16.222522609319949
20
-34.342333739432924
10
-16.447154499191129
20
-36.12728465538779
10
-18.206475216141229
20
-35.75115808004233
10
-18.56054576419497
20
-35.251062974652861
10
-17.222737526308688
20
-35.475308571093151
10
-19.740820933551074
20
-31.928513344749216
10
-19.327530139822315
20
-31.634829367865205
10
-16.804354127314035
20
-35.185139553139237
0
LWPOLYLINE
5
107
100
AcDbEntity
8
0
100
AcDbPolyline
90
4
70
1
43
0.0
10
-13.281163296699541
20
-5.8019057366251907
10
-13.281163296699541
20
-4.7623017880320511
10
-12.241559944152849
20
-4.7623017880320502
10
-12.241559944152849
20
-5.8019057366251907
0
SPLINE
5
108
100
AcDbEntity
8
0
100
AcDbSpline
70
0
71
3
72
9
73
5
74
0
42
0.000000001
43
0.0000000001
44
0.0000000001
40
0
40
0
40
0
40
0
40
0.059043927909681944
40
0.13280990535763487
40
0.13280990535763487
40
0.13280990535763487
40
0.13280990535763487
10
-10.054059944152849
20
-13.175049171149727
30
0
10
-10.241438989959509
20
-13.238919190828934
30
0
10
-10.662918288858009
20
-13.382584620435203
30
0
10
-11.10893159712769
20
-13.390390998308526
30
0
10
-11.35665865898134
20
-13.394726857841011
30
0
0
LINE
5
109
100
AcDbEntity
8
0
100
AcDbLine
10
-11.35665865898134
20
-13.394726857841011
30
0
11
-11.557772479057329
21
-13.394726857841011
31
0
0
LINE
5
110
100
AcDbEntity
8
0
100
AcDbLine
10
-11.557772479057329
20
-13.394726857841011
30
0
11
-11.557772479057329
21
-11.720841273963448
31
0
0
SPLINE
5
111
100
AcDbEntity
8
0
100
AcDbSpline
70
0
71
3
72
9
73
5
74
0
42
0.000000001
43
0.0000000001
44
0.0000000001
40
0
40
0
40
0
40
0
40
0.051561055450584897
40
0.092818449311817999
40
0.092818449311817999
40
0.092818449311817999
40
0.092818449311817999
10
-11.557772479057329
20
-11.720841273963448
30
0
10
-11.731360653638397
20
-11.727194853511021
30
0
10
-12.043848151085484
20
-11.738632350203664
30
0
10
-12.330657884448136
20
-11.861260057496567
30
0
10
-12.458143553733843
20
-11.915767535865303
30
0
0
SPLINE
5
112
100
AcDbEntity
8
0
100
AcDbSpline
70
0
71
3
72
9
73
5
74
0
42
0.000000001
43
0.0000000001
44
0.0000000001
40
0
40
0
40
0
40
0
40
0.029147505321642005
40
0.052703176943722355
40
0.052703176943722355
40
0.052703176943722355
40
0.052703176943722355
10
-12.458143553733843
20
-11.915767535865303
30
0
10
-12.544465551647054
20
-11.970250641094962
30
0
10
-12.70054901333452
20
-12.068764483143399
30
0
10
-12.738300258632492
20
-12.24742468099971
30
0
10
-12.75517316818239
20
-12.327276811301704
30
0
0
SPLINE
5
113
100
AcDbEntity
8
0
100
AcDbSpline
70
0
71
3
72
9
73
5
74
0
42
0.000000001
43
0.0000000001
44
0.0000000001
40
0
40
0
40
0
40
0
40
0.020187953489041007
40
0.044016759992588257
40
0.044016759992588257
40
0.044016759992588257
40
0.044016759992588257
10
-12.75517316818239
20
-12.327276811301704
30
0
10
-12.745172187667777
20
-12.395262647337139
30
0
10
-12.723366571796845
20
-12.54349541542291
30
0
10
-12.623560504398643
20
-12.65614463469954
30
0
10
-12.569529733657854
20
-12.71712814301252
30
0
0
SPLINE
5
114
100
AcDbEntity
8
0
100
AcDbSpline
70
0
71
3
72
9
73
5
74
0
42
0.000000001
43
0.0000000001
44
0.0000000001
40
0
40
0
40
0
40
0
40
0.022977926770087115
40
0.048449517156163524
40
0.048449517156163524
40
0.048449517156163524
40
0.048449517156163524
10
-12.569529733657854
20
-12.71712814301252
30
0
10
-12.512159788088697
20
-12.76849215252637
30
0
10
-12.391193863272562
20
-12.876794415173938
30
0
10
-12.244450280808831
20
-12.946546495979943
30
0
10
-12.167302093505876
20
-12.98321758240461
30
0
0
LINE
5
115
100
AcDbEntity
8
0
100
AcDbLine
10
-12.167302093505878
20
-12.98321758240461
30
0
11
-12.640693507194536
21
-13.419479474723335
31
0
0
SPLINE
5
116
100
AcDbEntity
8
0
100
AcDbSpline
70
0
71
3
72
9
73
5
74
0
42
0.000000001
43
0.0000000001
44
0.0000000001
40
0
40
0
40
0
40
0
40
0.075912285046366032
40
0.14247412974755796
40
0.14247412974755796
40
0.14247412974755796
40
0.14247412974755796
10
-12.640693507194536
20
-13.419479474723335
30
0
10
-12.864202265299564
20
-13.275053355506024
30
0
10
-13.283689253242578
20
-13.003990698971112
30
0
10
-13.368430147030573
20
-12.515343350831445
30
0
10
-13.408019862175005
20
-12.287054404914375
30
0
0
SPLINE
5
117
100
AcDbEntity
8
0
100
AcDbSpline
70
0
71
3
72
9
73
5
74
0
42
0.000000001
43
0.0000000001
44
0.0000000001
40
0
40
0
40
0
40
0
40
0.05584072759250467
40
0.11618564084190097
40
0.11618564084190097
40
0.11618564084190097
40
0.11618564084190097
10
-13.408019862175005
20
-12.287054404914375
30
0
10
-13.380234959275832
20
-12.095058752374088
30
0
10
-13.322423987101043
20
-11.695580828446632
30
0
10
-12.995918518527819
20
-11.455621089037107
30
0
10
-12.826336941719072
20
-11.330989942252632
30
0
0
SPLINE
5
118
100
AcDbEntity
8
0
100
AcDbSpline
70
0
71
3
72
9
73
5
74
0
42
0.000000001
43
0.0000000001
44
0.0000000001
40
0
40
0
40
0
40
0
40
0.066461560992912352
40
0.14417767958888844
40
0.14417767958888844
40
0.14417767958888844
40
0.14417767958888844
10
-12.826336941719072
20
-11.330989942252632
30
0
10
-12.624246706981992
20
-11.234585269111488
30
0
10
-12.185844408319863
20
-11.025450818048901
30
0
10
-11.699343001820621
20
-11.008865478126371
30
0
10
-11.437104067802446
20
-10.999925479590889
30
0
0
SPLINE
5
119
100
AcDbEntity
8
0
100
AcDbSpline
70
0
71
3
72
9
73
5
74
0
42
0.000000001
43
0.0000000001
44
0.0000000001
40
0
40
0
40
0
40
0
40
0.077138960870031303
40
0.14223383636467896
40
0.14223383636467896
40
0.14223383636467896
40
0.14223383636467896
10
-11.437104067802446
20
-10.999925479590889
30
0
10
-11.177511466080093
20
-11.007211419068703
30
0
10
-10.69885773237128
20
-11.020645708457133
30
0
10
-10.256506731994667
20
-11.201712279250103
30
0
10
-10.054059944152849
20
-11.284579381644722
30
0
0
SPLINE
5
120
100
AcDbEntity
8
0
100
AcDbSpline
70
0
71
3
72
9
73
5
74
0
42
0.000000001
43
0.0000000001
44
0.0000000001
40
0
40
0
40
0
40
0
40
0.062723822607864563
40
0.11998252195336145
40
0.11998252195336145
40
0.11998252195336145
40
0.11998252195336145
10
-10.054059944152849
20
-11.284579381644722
30
0
10
-9.8682739791507235
20
-11.402835110092012
30
0
10
-9.512889570202109
20
-11.629042951779878
30
0
10
-9.4477634637441916
20
-12.043062184699862
30
0
10
-9.416683635711685
20
-12.24064265221357
30
0
0
SPLINE
5
121
100
AcDbEntity
8
0
100
AcDbSpline
70
0
71
3
72
9
73
5
74
0
42
0.000000001
43
0.0000000001
44
0.0000000001
40
0
40
0
40
0
40
0
40
0.057779070525248569
40
0.11878503445140384
40
0.11878503445140384
40
0.11878503445140384
40
0.11878503445140384
10
-9.416683635711685
20
-12.24064265221357
30
0
10
-9.4460123076828832
20
-12.441693575174124
30
0
10
-9.5063076235964612
20
-12.855023879612306
30
0
10
-9.8681988131180383
20
-13.066459466619634
30
0
10
-10.054059944152849
20
-13.175049171149727
30
0
0
LINE
5
122
100
AcDbEntity
8
0
100
AcDbLine
10
-9.930296859741226
20
-21.201039895713322
30
0
11
-9.930296859741226
21
-20.517251834571354
31
0
0
LINE
5
123
100
AcDbEntity
8
0
100
AcDbLine
10
-9.930296859741226
20
-20.517251834571354
30
0
11
-8.1481188750267179
21
-20.517251834571354
31
0
0
LINE
5
124
100
AcDbEntity
8
0
100
AcDbLine
10
-8.1481188750267179
20
-20.517251834571354
30
0
11
-8.1481188750267179
21
-23.082226857841007
31
0
0
LINE
5
125
100
AcDbEntity
8
0
100
AcDbLine
10
-8.1481188750267179
20
-23.082226857841007
30
0
11
-8.7174254870414885
21
-23.082226857841007
31
0
0
SPLINE
5
126
100
AcDbEntity
8
0
100
AcDbSpline
70
0
71
3
72
9
73
5
74
0
42
0.000000001
43
0.0000000001
44
0.0000000001
40
0
40
0
40
0
40
0
40
0.10875258117736328
40
0.2442050835590141
40
0.2442050835590141
40
0.2442050835590141
40
0.2442050835590141
10
-8.7174254870414885
20
-23.082226857841007
30
0
10
-9.0623988304210616
20
-22.97025851470147
30
0
10
-9.8370401606185318
20
-22.71883240328107
30
0
10
-10.631399719342562
20
-22.538620939957962
30
0
10
-11.072004756927505
20
-22.43866358727216
30
0
0
SPLINE
5
127
100
AcDbEntity
8
0
100
AcDbSpline
70
0
71
3
72
9
73
5
74
0
42
0.000000001
43
0.0000000001
44
0.0000000001
40
0
40
0
40
0
40
0
40
0.11644711358347776
40
0.2249204439220252
40
0.2249204439220252
40
0.2249204439220252
40
0.2249204439220252
10
-11.072004756927505
20
-22.43866358727216
30
0
10
-11.451418452439743
20
-22.356393295848349
30
0
10
-12.184265271897683
20
-22.19748621864224
30
0
10
-12.924275463218171
20
-22.07631111320676
30
0
10
-13.281163296699539
20
-22.017871484458439
30
0
0
LINE
5
128
100
AcDbEntity
8
0
100
AcDbLine
10
-13.281163296699539
20
-22.017871484458436
30
0
11
-13.281163296699539
21
-21.296955690085881
31
0
0
SPLINE
5
129
100
AcDbEntity
8
0
100
AcDbSpline
70
0
71
3
72
9
73
5
74
0
42
0.000000001
43
0.0000000001
44
0.0000000001
40
0
40
0
40
0
40
0
40
0.20620549707112051
40
0.45480788518972171
40
0.45480788518972171
40
0.45480788518972171
40
0.45480788518972171
10
-13.281163296699539
20
-21.296955690085881
30
0
10
-12.60462889737852
20
-21.420280023993406
30
0
10
-11.112461211338767
20
-21.6922847973558
30
0
10
-9.6499131307111128
20
-22.094852890333307
30
0
10
-8.8504702067375334
20
-22.314900502860539
30
0
0
LINE
5
130
100
AcDbEntity
8
0
100
AcDbLine
10
-8.8504702067375316
20
-22.314900502860546
30
0
11
-8.8504702067375334
21
-21.201039895713322
31
0
0
LINE
5
131
100
AcDbEntity
8
0
100
AcDbLine
10
-8.8504702067375334
20
-21.201039895713322
30
0
11
-9.930296859741226
21
-21.201039895713322
31
0
0
LWPOLYLINE
5
132
100
AcDbEntity
8
0
100
AcDbPolyline
90
12
70
1
43
0.0
10
-13.281163296699539
20
-26.62492428749799
10
-11.381411275863663
20
-27.633587464988224
10
-9.543539903163925
20
-26.720840081870548
10
-9.543539903163925
20
-27.488166436851017
10
-10.880173466205612
20
-28.076037511527531
10
-9.543539903163925
20
-28.663908586204045
10
-9.543539903163925
20
-29.412671670615666
10
-11.381411275863663
20
-28.493734941184513
10
-13.281163296699539
20
-29.496211156547062
10
-13.281163296699535
20
-28.685568914115422
10
-11.90740140438081
20
-28.051284894645207
10
-13.281163296699539
20
-27.441755876243107
0
LINE
5
133
100
AcDbEntity
8
0
100
AcDbLine
10
-25.239703378677383
20
-3.9578465077280951
30
0
11
-25.954431018829361
21
-3.9578465077280951
31
0
0
LINE
5
134
100
AcDbEntity
8
0
100
AcDbLine
10
-25.954431018829361
20
-3.9578465077280951
30
0
11
-25.954431018829361
21
-1.5073514807224226
31
0
0
LINE
5
135
100
AcDbEntity
8
0
100
AcDbLine
10
-25.954431018829361
20
-1.5073514807224226
30
0
11
-25.283019266128555
21
-1.5073514807224226
31
0
0
SPLINE
5
136
100
AcDbEntity
8
0
100
AcDbSpline
70
0
71
3
72
9
73
5
74
0
42
0.000000001
43
0.0000000001
44
0.0000000001
40
0
40
0
40
0
40
0
40
0.049355175922253157
40
0.099473962401175592
40
0.099473962401175592
40
0.099473962401175592
40
0.099473962401175592
10
-25.283019266128555
20
-1.5073514807224226
30
0
10
-25.122211520851955
20
-1.5450506533571473
30
0
10
-24.798108054324743
20
-1.6210322705056583
30
0
10
-24.501267196646928
20
-1.7717570701585819
30
0
10
-24.351707420349136
20
-1.8476979884505225
30
0
0
SPLINE
5
137
100
AcDbEntity
8
0
100
AcDbSpline
70
0
71
3
72
9
73
5
74
0
42
0.000000001
43
0.0000000001
44
0.0000000001
40
0
40
0
40
0
40
0
40
0.047328038098139229
40
0.10932861181206588
40
0.10932861181206588
40
0.10932861181206588
40
0.10932861181206588
10
-24.351707420349136
20
-1.8476979884505225
30
0
10
-24.218044305108577
20
-1.9317671886011236
30
0
10
-23.909280125840795
20
-2.125968539807721
30
0
10
-23.626929301118356
20
-2.3570955655356913
30
0
10
-23.466807327270523
20
-2.4881683740019751
30
0
0
LINE
5
138
100
AcDbEntity
8
0
100
AcDbLine
10
-23.466807327270523
20
-2.4881683740019751
30
0
11
-23.321386299133316
21
-2.608836636245246
31
0
0
SPLINE
5
139
100
AcDbEntity
8
0
100
AcDbSpline
70
0
71
3
72
9
73
5
74
0
42
0.000000001
43
0.0000000001
44
0.0000000001
40
0
40
0
40
0
40
0
40
0.045121917914053282
40
0.074191393460574101
40
0.074191393460574101
40
0.074191393460574101
40
0.074191393460574101
10
-23.321386299133316
20
-2.608836636245246
30
0
10
-23.205143091931973
20
-2.7045704397208743
30
0
10
-23.01401102305536
20
-2.8619800670037057
30
0
10
-22.805809404543282
20
-2.9957713184504442
30
0
10
-22.724232397079483
20
-3.0481930527090979
30
0
0
SPLINE
5
140
100
AcDbEntity
8
0
100
AcDbSpline
70
0
71
3
72
9
73
5
74
0
42
0.000000001
43
0.0000000001
44
0.0000000001
40
0
40
0
40
0
40
0
40
0.029071130988374865
40
0.063498888603515366
40
0.063498888603515366
40
0.063498888603515366
40
0.063498888603515366
10
-22.724232397079483
20
-3.0481930527090979
30
0
10
-22.634459556773628
20
-3.0869249413114797
30
0
10
-22.438372394272726
20
-3.1715254297049271
30
0
10
-22.224482054002689
20
-3.1778231385404911
30
0
10
-22.108515224456802
20
-3.1812376233935309
30
0
0
SPLINE
5
141
100
AcDbEntity
8
0
100
AcDbSpline
70
0
71
3
72
9
73
5
74
0
42
0.000000001
43
0.0000000001
44
0.0000000001
40
0
40
0
40
0
40
0
40
0.025624302582561986
40
0.047566731565780458
40
0.047566731565780458
40
0.047566731565780458
40
0.047566731565780458
10
-22.108515224456802
20
-3.1812376233935309
30
0
10
-22.02240840917549
20
-3.1788022148021362
30
0
10
-21.86256718987698
20
-3.1742813336446241
30
0
10
-21.71327445389117
20
-3.1176388758324629
30
0
10
-21.644406042099014
20
-3.0915098342299414
30
0
0
SPLINE
5
142
100
AcDbEntity
8
0
100
AcDbSpline
70
0
71
3
72
9
73
5
74
0
42
0.000000001
43
0.0000000001
44
0.0000000001
40
0
40
0
40
0
40
0
40
0.028067497062805872
40
0.05503481142919607
40
0.05503481142919607
40
0.05503481142919607
40
0.05503481142919607
10
-21.644406042099014
20
-3.0915098342299414
30
0
10
-21.560489605586213
20
-3.0394304274410739
30
0
10
-21.395946067950558
20
-2.9373130093629269
30
0
10
-21.369577961882669
20
-2.7459313323820207
30
0
10
-21.356657466888443
20
-2.6521534177660895
30
0
0
SPLINE
5
143
100
AcDbEntity
8
0
100
AcDbSpline
70
0
71
3
72
9
73
5
74
0
42
0.000000001
43
0.0000000001
44
0.0000000001
40
0
40
0
40
0
40
0
40
0.024576102068365361
40
0.050275736881290889
40
0.050275736881290889
40
0.050275736881290889
40
0.050275736881290889
10
-21.356657466888443
20
-2.6521534177660895
30
0
10
-21.365761297633998
20
-2.5685777853118461
30
0
10
-21.384385154171621
20
-2.3976057371298993
30
0
10
-21.499121618942269
20
-2.2691685057179662
30
0
10
-21.557771883010879
20
-2.203514769971366
30
0
0
SPLINE
5
144
100
AcDbEntity
8
0
100
AcDbSpline
70
0
71
3
72
9
73
5
74
0
42
0.000000001
43
0.0000000001
44
0.0000000001
40
0
40
0
40
0
40
0
40
0.024443525772382291
40
0.05599578657705262
40
0.05599578657705262
40
0.05599578657705262
40
0.05599578657705262
10
-21.557771883010879
20
-2.203514769971366
30
0
10
-21.621774600070538
20
-2.1526575272001973
30
0
10
-21.768393484686328
20
-2.0361525950300075
30
0
10
-21.938440196624907
20
-1.957175165922441
30
0
10
-22.03425737380983
20
-1.9126733097433997
30
0
0
LINE
5
145
100
AcDbEntity
8
0
100
AcDbLine
10
-22.03425737380983
20
-1.9126733097433992
30
0
11
-21.641311368942276
21
-1.4299999999999953
31
0
0
SPLINE
5
146
100
AcDbEntity
8
0
100
AcDbSpline
70
0
71
3
72
9
73
5
74
0
42
0.000000001
43
0.0000000001
44
0.0000000001
40
0
40
0
40
0
40
0
40
0.038066034690425049
40
0.073052513925714796
40
0.073052513925714796
40
0.073052513925714796
40
0.073052513925714796
10
-21.641311368942276
20
-1.4299999999999953
30
0
10
-21.525251596765301
20
-1.4837689256439446
30
0
10
-21.302521328374443
20
-1.5869568521332609
30
0
10
-21.125732230301875
20
-1.7569853766838768
30
0
10
-21.0410639858246
20
-1.8384158316254569
30
0
0
SPLINE
5
147
100
AcDbEntity
8
0
100
AcDbSpline
70
0
71
3
72
9
73
5
74
0
42
0.000000001
43
0.0000000001
44
0.0000000001
40
0
40
0
40
0
40
0
40
0.046743872171777494
40
0.09266911932958824
40
0.09266911932958824
40
0.09266911932958824
40
0.09266911932958824
10
-21.0410639858246
20
-1.8384158316254569
30
0
10
-20.944506139364215
20
-1.9650699775287006
30
0
10
-20.753081463142205
20
-2.2161601764143031
30
0
10
-20.724275346861432
20
-2.5304375631170384
30
0
10
-20.709999523162857
20
-2.6861881169676733
30
0
0
SPLINE
5
148
100
AcDbEntity
8
0
100
AcDbSpline
70
0
71
3
72
9
73
5
74
0
42
0.000000001
43
0.0000000001
44
0.0000000001
40
0
40
0
40
0
40
0
40
0.05602429728991163
40
0.10980236031855671
40
0.10980236031855671
40
0.10980236031855671
40
0.10980236031855671
10
-20.709999523162857
20
-2.6861881169676733
30
0
10
-20.727468765212322
20
-2.8789709831080801
30
0
10
-20.761706838741038
20
-3.2568072926231095
30
0
10
-21.034375312877913
20
-3.5196887486350645
30
0
10
-21.167920551300064
20
-3.6484405848383856
30
0
0
SPLINE
5
149
100
AcDbEntity
8
0
100
AcDbSpline
70
0
71
3
72
9
73
5
74
0
42
0.000000001
43
0.0000000001
44
0.0000000001
40
0
40
0
40
0
40
0
40
0.046009529329066538
40
0.096461102512265848
40
0.096461102512265848
40
0.096461102512265848
40
0.096461102512265848
10
-21.167920551300064
20
-3.6484405848383856
30
0
10
-21.300939510173382
20
-3.7296125947933327
30
0
10
-21.579819898976822
20
-3.899793461400118
30
0
10
-21.906638792430559
20
-3.9175952521244013
30
0
10
-22.077573261261001
20
-3.9269060346484137
30
0
0
SPLINE
5
150
100
AcDbEntity
8
0
100
AcDbSpline
70
0
71
3
72
9
73
5
74
0
42
0.000000001
43
0.0000000001
44
0.0000000001
40
0
40
0
40
0
40
0
40
0.051080196063793534
40
0.099499538954372066
40
0.099499538954372066
40
0.099499538954372066
40
0.099499538954372066
10
-22.077573261261001
20
-3.9269060346484137
30
0
10
-22.249800516087419
20
-3.9172829276164296
30
0
10
-22.585283418878234
20
-3.8985379973543148
30
0
10
-22.882712169011207
20
-3.7427943797992196
30
0
10
-23.027449569702164
20
-3.6670050475001288
30
0
0
SPLINE
5
151
100
AcDbEntity
8
0
100
AcDbSpline
70
0
71
3
72
9
73
5
74
0
42
0.000000001
43
0.0000000001
44
0.0000000001
40
0
40
0
40
0
40
0
40
0.025309501180371861
40
0.072214108131364543
40
0.072214108131364543
40
0.072214108131364543
40
0.072214108131364543
10
-23.027449569702164
20
-3.6670050475001288
30
0
10
-23.095480161468942
20
-3.6170724815163195
30
0
10
-23.289587839651723
20
-3.4746028337135519
30
0
10
-23.472053725900651
20
-3.3173871323901984
30
0
10
-23.590569219589248
20
-3.2152721735835028
30
0
0
SPLINE
5
152
100
AcDbEntity
8
0
100
AcDbSpline
70
0
71
3
72
9
73
5
74
0
42
0.000000001
43
0.0000000001
44
0.0000000001
40
0
40
0
40
0
40
0
40
0.0086263454625421891
40
0.020006449029305384
40
0.020006449029305384
40
0.020006449029305384
40
0.020006449029305384
10
-23.590569219589248
20
-3.2152721735835028
30
0
10
-23.61272033841567
20
-3.1969376229397568
30
0
10
-23.664093800290939
20
-3.154415647148026
30
0
10
-23.715838418284967
20
-3.1123459285400044
30
0
10
-23.745271883010879
20
-3.0884157571196509
30
0
0
LINE
5
153
100
AcDbEntity
8
0
100
AcDbLine
10
-23.745271883010879
20
-3.0884157571196513
30
0
11
-23.927821836471573
21
-2.9368068727850867
31
0
0
SPLINE
5
154
100
AcDbEntity
8
0
100
AcDbSpline
70
0
71
3
72
9
73
5
74
0
42
0.000000001
43
0.0000000001
44
0.0000000001
40
0
40
0
40
0
40
0
40
0.049985197607042578
40
0.093955876164252189
40
0.093955876164252189
40
0.093955876164252189
40
0.093955876164252189
10
-23.927821836471573
20
-2.9368068727850867
30
0
10
-24.058797901981599
20
-2.8331983792989424
30
0
10
-24.304990206517122
20
-2.6384481882508353
30
0
10
-24.581305561636047
20
-2.4897082184464296
30
0
10
-24.710619173049942
20
-2.4200989755988074
30
0
0
SPLINE
5
155
100
AcDbEntity
8
0
100
AcDbSpline
70
0
71
3
72
9
73
5
74
0
42
0.000000001
43
0.0000000001
44
0.0000000001
40
0
40
0
40
0
40
0
40
0.033225489055581557
40
0.055905419182463494
40
0.055905419182463494
40
0.055905419182463494
40
0.055905419182463494
10
-24.710619173049942
20
-2.4200989755988074
30
0
10
-24.811183842640276
20
-2.3719827358757057
30
0
10
-24.98039459523412
20
-2.2910220449223244
30
0
10
-25.164866209389896
20
-2.2595851454207523
30
0
10
-25.239703378677383
20
-2.2468317005038214
30
0
0
LINE
5
156
100
AcDbEntity
8
0
100
AcDbLine
10
-25.239703378677383
20
-2.246831700503821
30
0
11
-25.239703378677383
21
-3.9578465077280951
31
0
0
LINE
5
157
100
AcDbEntity
8
0
100
AcDbLine
10
-25.954431018829357
20
-40.291384801566601
30
0
11
-25.954431018829357
21
-39.582845315635204
31
0
0
LINE
5
158
100
AcDbEntity
8
0
100
AcDbLine
10
-25.954431018829357
20
-39.582845315635204
30
0
11
-20.536732397079479
21
-39.582845315635197
31
0
0
LINE
5
159
100
AcDbEntity
8
0
100
AcDbLine
10
-20.536732397079479
20
-39.582845315635197
30
0
11
-20.536732397079479
21
-40.291384801566593
31
0
0
LINE
5
160
100
AcDbEntity
8
0
100
AcDbLine
10
-20.536732397079479
20
-40.291384801566593
30
0
11
-22.702574453353893
21
-40.291384801566601
31
0
0
SPLINE
5
161
100
AcDbEntity
8
0
100
AcDbSpline
70
0
71
3
72
9
73
5
74
0
42
0.000000001
43
0.0000000001
44
0.0000000001
40
0
40
0
40
0
40
0
40
0.018889514628649726
40
0.03662389580858165
40
0.03662389580858165
40
0.03662389580858165
40
0.03662389580858165
10
-22.702574453353893
20
-40.291384801566601
30
0
10
-22.643970376638723
20
-40.315706711434828
30
0
10
-22.530345985447681
20
-40.36286319535678
30
0
10
-22.437922256689564
20
-40.443951175264445
30
0
10
-22.393167934417736
20
-40.483216390311718
30
0
0
SPLINE
5
162
100
AcDbEntity
8
0
100
AcDbSpline
70
0
71
3
72
9
73
5
74
0
42
0.000000001
43
0.0000000001
44
0.0000000001
40
0
40
0
40
0
40
0
40
0.031750691799787935
40
0.061410375977551744
40
0.061410375977551744
40
0.061410375977551744
40
0.061410375977551744
10
-22.393167934417736
20
-40.483216390311718
30
0
10
-22.320998559864648
20
-40.564514669542135
30
0
10
-22.181412674513957
20
-40.72175716130733
30
0
10
-22.157293237804346
20
-40.930195646633116
30
0
10
-22.145644149780285
20
-41.030866250693798
30
0
0
SPLINE
5
163
100
AcDbEntity
8
0
100
AcDbSpline
70
0
71
3
72
9
73
5
74
0
42
0.000000001
43
0.0000000001
44
0.0000000001
40
0
40
0
40
0
40
0
40
0.035314102019422422
40
0.072275219631948967
40
0.072275219631948967
40
0.072275219631948967
40
0.072275219631948967
10
-22.145644149780285
20
-41.030866250693798
30
0
10
-22.159952595844938
20
-41.151547810087877
30
0
10
-22.189236820072008
20
-41.39853940018795
30
0
10
-22.369203659262389
20
-41.570844910372486
30
0
10
-22.461237630844128
20
-41.658960923850536
30
0
0
SPLINE
5
164
100
AcDbEntity
8
0
100
AcDbSpline
70
0
71
3
72
9
73
5
74
0
42
0.000000001
43
0.0000000001
44
0.0000000001
40
0
40
0
40
0
40
0
40
0.050257380579438744
40
0.12119921170850215
40
0.12119921170850215
40
0.12119921170850215
40
0.12119921170850215
10
-22.461237630844128
20
-41.658960923850536
30
0
10
-22.611882167058127
20
-41.736915074784534
30
0
10
-22.975172072477488
20
-41.924906998232942
30
0
10
-23.386774114552669
20
-41.926946488310584
30
0
10
-23.627698144912731
20
-41.928140268027782
30
0
0
LINE
5
165
100
AcDbEntity
8
0
100
AcDbLine
10
-23.627698144912731
20
-41.928140268027782
30
0
11
-25.954431018829357
21
-41.928140268027782
31
0
0
LINE
5
166
100
AcDbEntity
8
0
100
AcDbLine
10
-25.954431018829357
20
-41.928140268027782
30
0
11
-25.954431018829357
21
-41.219603166282177
31
0
0
LINE
5
167
100
AcDbEntity
8
0
100
AcDbLine
10
-25.954431018829357
20
-41.219603166282177
30
0
11
-23.633886299133312
21
-41.219603166282177
31
0
0
SPLINE
5
168
100
AcDbEntity
8
0
100
AcDbSpline
70
0
71
3
72
9
73
5
74
0
42
0.000000001
43
0.0000000001
44
0.0000000001
40
0
40
0
40
0
40
0
40
0.062718647216255516
40
0.094709725908439138
40
0.094709725908439138
40
0.094709725908439138
40
0.094709725908439138
10
-23.633886299133312
20
-41.219603166282177
30
0
10
-23.402801151293275
20
-41.23628833948711
30
0
10
-23.053845745128697
20
-41.261484166423969
30
0
10
-22.867591436385709
20
-40.98733054695564
30
0
10
-22.804678401947033
20
-40.894726857841015
30
0
0
SPLINE
5
169
100
AcDbEntity
8
0
100
AcDbSpline
70
0
71
3
72
9
73
5
74
0
42
0.000000001
43
0.0000000001
44
0.0000000001
40
0
40
0
40
0
40
0
40
0.018398665118352996
40
0.043792564242654181
40
0.043792564242654181
40
0.043792564242654181
40
0.043792564242654181
10
-22.804678401947033
20
-40.894726857841015
30
0
10
-22.820219840939551
20
-40.833628474915109
30
0
10
-22.857211626002496
20
-40.688201899552546
30
0
10
-22.980634452379853
20
-40.599581009014862
30
0
10
-23.05220337867738
20
-40.548192605674267
30
0
0
SPLINE
5
170
100
AcDbEntity
8
0
100
AcDbSpline
70
0
71
3
72
9
73
5
74
0
42
0.000000001
43
0.0000000001
44
0.0000000001
40
0
40
0
40
0
40
0
40
0.033452499663230661
40
0.072841532895091793
40
0.072841532895091793
40
0.072841532895091793
40
0.072841532895091793
10
-23.05220337867738
20
-40.548192605674267
30
0
10
-23.14957636218373
20
-40.492522893980109
30
0
10
-23.361602293058084
20
-40.371304235390966
30
0
10
-23.6005767436186
20
-40.319433748866913
30
0
10
-23.729802093505871
20
-40.291384801566601
30
0
0
LINE
5
171
100
AcDbEntity
8
0
100
AcDbLine
10
-23.729802093505871
20
-40.291384801566601
30
0
11
-25.954431018829357
21
-40.291384801566601
31
0
0
SPLINE
5
172
100
AcDbEntity
8
0
100
AcDbSpline
70
0
71
3
72
9
73
5
74
0
42
0.000000001
43
0.0000000001
44
0.0000000001
40
0
40
0
40
0
40
0
40
0.041363989375741393
40
0.10405140765244023
40
0.10405140765244023
40
0.10405140765244023
40
0.10405140765244023
10
-25.570767841339126
20
-11.21650968521833
30
0
10
-25.438945245679321
20
-11.173624210799492
30
0
10
-25.107344574520525
20
-11.06574549676666
30
0
10
-24.757439522103425
20
-11.067149010747386
30
0
10
-24.546633682250992
20
-11.067994579970833
30
0
0
LINE
5
173
100
AcDbEntity
8
0
100
AcDbLine
10
-24.546633682250992
20
-11.067994579970835
30
0
11
-22.216807327270523
21
-11.067994579970833
31
0
0
LINE
5
174
100
AcDbEntity
8
0
100
AcDbLine
10
-22.216807327270523
20
-11.067994579970833
30
0
11
-22.216807327270523
21
-11.776534661948677
31
0
0
LINE
5
175
100
AcDbEntity
8
0
100
AcDbLine
10
-22.216807327270523
20
-11.776534661948677
30
0
11
-24.466187677383438
21
-11.776534661948677
31
0
0
SPLINE
5
176
100
AcDbEntity
8
0
100
AcDbSpline
70
0
71
3
72
9
73
5
74
0
42
0.000000001
43
0.0000000001
44
0.0000000001
40
0
40
0
40
0
40
0
40
0.068033210723073625
40
0.10154718511717292
40
0.10154718511717292
40
0.10154718511717292
40
0.10154718511717292
10
-24.466187677383438
20
-11.776534661948677
30
0
10
-24.71566077294904
20
-11.757083039794431
30
0
10
-25.088027303176048
20
-11.728049315606889
30
0
10
-25.297445064409505
20
-12.013417024590417
30
0
10
-25.366559944152847
20
-12.107597932517525
30
0
0
SPLINE
5
177
100
AcDbEntity
8
0
100
AcDbSpline
70
0
71
3
72
9
73
5
74
0
42
0.000000001
43
0.0000000001
44
0.0000000001
40
0
40
0
40
0
40
0
40
0.019429284564350561
40
0.046062065768903301
40
0.046062065768903301
40
0.046062065768903301
40
0.046062065768903301
10
-25.366559944152847
20
-12.107597932517525
30
0
10
-25.349944311096372
20
-12.172236413973387
30
0
10
-25.310552722584472
20
-12.325478391266
30
0
10
-25.177437084583243
20
-12.414840884041833
30
0
10
-25.100470504760757
20
-12.46650968521833
30
0
0
SPLINE
5
178
100
AcDbEntity
8
0
100
AcDbSpline
70
0
71
3
72
9
73
5
74
0
42
0.000000001
43
0.0000000001
44
0.0000000001
40
0
40
0
40
0
40
0
40
0.032276328979975795
40
0.070418895858153155
40
0.070418895858153155
40
0.070418895858153155
40
0.070418895858153155
10
-25.100470504760757
20
-12.46650968521833
30
0
10
-25.005473779879466
20
-12.518257057253368
30
0
10
-24.798214630908994
20
-12.631156910409818
30
0
10
-24.566788682568337
20
-12.6788945989928
30
0
10
-24.441436252594009
20
-12.704751834571358
30
0
0
LINE
5
179
100
AcDbEntity
8
0
100
AcDbLine
10
-24.441436252594009
20
-12.704751834571358
30
0
11
-22.216807327270523
21
-12.704751834571358
31
0
0
LINE
5
180
100
AcDbEntity
8
0
100
AcDbLine
10
-22.216807327270523
20
-12.704751834571358
30
0
11
-22.216807327270523
21
-13.413291320502754
31
0
0
LINE
5
181
100
AcDbEntity
8
0
100
AcDbLine
10
-22.216807327270523
20
-13.413291320502754
30
0
11
-25.954431018829361
21
-13.413291320502754
31
0
0
LINE
5
182
100
AcDbEntity
8
0
100
AcDbLine
10
-25.954431018829361
20
-13.413291320502754
30
0
11
-25.954431018829361
21
-12.748068914115425
31
0
0
LINE
5
183
100
AcDbEntity
8
0
100
AcDbLine
10
-25.954431018829361
20
-12.748068914115425
30
0
11
-25.332524499893204
21
-12.748068914115425
31
0
0
SPLINE
5
184
100
AcDbEntity
8
0
100
AcDbSpline
70
0
71
3
72
9
73
5
74
0
42
0.000000001
43
0.0000000001
44
0.0000000001
40
0
40
0
40
0
40
0
40
0.061012238843693278
40
0.11222254031286466
40
0.11222254031286466
40
0.11222254031286466
40
0.11222254031286466
10
-25.332524499893204
20
-12.748068914115425
30
0
10
-25.534186569329293
20
-12.664658381453055
30
0
10
-25.905112635078925
20
-12.511237657322594
30
0
10
-25.987842316065077
20
-12.123597995264186
30
0
10
-26.025594196319595
20
-11.946707114875313
30
0
0
SPLINE
5
185
100
AcDbEntity
8
0
100
AcDbSpline
70
0
71
3
72
9
73
5
74
0
42
0.000000001
43
0.0000000001
44
0.0000000001
40
0
40
0
40
0
40
0
40
0.044335661358720885
40
0.089873270529104737
40
0.089873270529104737
40
0.089873270529104737
40
0.089873270529104737
10
-26.025594196319595
20
-11.946707114875313
30
0
10
-26.005649373865371
20
-11.792779820495143
30
0
10
-25.965219021206813
20
-11.480752234897366
30
0
10
-25.703418657178112
20
-11.305372367302471
30
0
10
-25.570767841339126
20
-11.21650968521833
30
0
0
LINE
5
186
100
AcDbEntity
8
0
100
AcDbLine
10
-25.954431018829361
20
-18.113168821036812
30
0
11
-25.954431018829361
21
-17.404629335105415
31
0
0
LINE
5
187
100
AcDbEntity
8
0
100
AcDbLine
10
-25.954431018829361
20
-17.404629335105415
30
0
11
-20.536732397079483
21
-17.404629335105415
31
0
0
LINE
5
188
100
AcDbEntity
8
0
100
AcDbLine
10
-20.536732397079483
20
-17.404629335105415
30
0
11
-20.536732397079483
21
-18.113168821036812
31
0
0
LINE
5
189
100
AcDbEntity
8
0
100
AcDbLine
10
-20.536732397079483
20
-18.113168821036812
30
0
11
-22.702574453353897
21
-18.113168821036812
31
0
0
SPLINE
5
190
100
AcDbEntity
8
0
100
AcDbSpline
70
0
71
3
72
9
73
5
74
0
42
0.000000001
43
0.0000000001
44
0.0000000001
40
0
40
0
40
0
40
0
40
0.018889514628649726
40
0.03662389580858165
40
0.03662389580858165
40
0.03662389580858165
40
0.03662389580858165
10
-22.702574453353897
20
-18.113168821036812
30
0
10
-22.643970376638727
20
-18.137490730905039
30
0
10
-22.530345985447681
20
-18.184647214827002
30
0
10
-22.437922256689564
20
-18.265735194734653
30
0
10
-22.39316793441774
20
-18.305000409781929
30
0
0
SPLINE
5
191
100
AcDbEntity
8
0
100
AcDbSpline
70
0
71
3
72
9
73
5
74
0
42
0.000000001
43
0.0000000001
44
0.0000000001
40
0
40
0
40
0
40
0
40
0.031750788509449263
40
0.06141023951559757
40
0.06141023951559757
40
0.06141023951559757
40
0.06141023951559757
10
-22.39316793441774
20
-18.305000409781929
30
0
10
-22.320998567927759
20
-18.386299093140785
30
0
10
-22.181413433513882
20
-18.543541538186975
30
0
10
-22.157293440695227
20
-18.751979361480437
30
0
10
-22.145644149780289
20
-18.852649078071114
30
0
0
SPLINE
5
192
100
AcDbEntity
8
0
100
AcDbSpline
70
0
71
3
72
9
73
5
74
0
42
0.000000001
43
0.0000000001
44
0.0000000001
40
0
40
0
40
0
40
0
40
0.035313985823475537
40
0.072275103436002075
40
0.072275103436002075
40
0.072275103436002075
40
0.072275103436002075
10
-22.145644149780289
20
-18.852649078071114
30
0
10
-22.159952676617671
20
-18.973330205698435
30
0
10
-22.189237115433443
20
-19.220321327732577
30
0
10
-22.369203661303057
20
-19.392626550815823
30
0
10
-22.461237630844131
20
-19.480742559134956
30
0
0
SPLINE
5
193
100
AcDbEntity
8
0
100
AcDbSpline
70
0
71
3
72
9
73
5
74
0
42
0.000000001
43
0.0000000001
44
0.0000000001
40
0
40
0
40
0
40
0
40
0.050257380579438744
40
0.12119925694006611
40
0.12119925694006611
40
0.12119925694006611
40
0.12119925694006611
10
-22.461237630844131
20
-19.480742559134956
30
0
10
-22.611882190137294
20
-19.558696474730105
30
0
10
-22.975172286793565
20
-19.746687900800687
30
0
10
-23.386774153502952
20
-19.748730860669234
30
0
10
-23.627698144912735
20
-19.749926671683784
30
0
0
LINE
5
194
100
AcDbEntity
8
0
100
AcDbLine
10
-23.627698144912735
20
-19.749926671683784
30
0
11
-25.954431018829361
21
-19.749926671683784
31
0
0
LINE
5
195
100
AcDbEntity
8
0
100
AcDbLine
10
-25.954431018829361
20
-19.749926671683784
30
0
11
-25.954431018829361
21
-19.041387185752388
31
0
0
LINE
5
196
100
AcDbEntity
8
0
100
AcDbLine
10
-25.954431018829361
20
-19.041387185752388
30
0
11
-23.633886299133316
21
-19.041387185752388
31
0
0
SPLINE
5
197
100
AcDbEntity
8
0
100
AcDbSpline
70
0
71
3
72
9
73
5
74
0
42
0.000000001
43
0.0000000001
44
0.0000000001
40
0
40
0
40
0
40
0
40
0.062718647216255516
40
0.094709725908439138
40
0.094709725908439138
40
0.094709725908439138
40
0.094709725908439138
10
-23.633886299133316
20
-19.041387185752388
30
0
10
-23.402801151293279
20
-19.058072358957322
30
0
10
-23.053845745128704
20
-19.08326818589417
30
0
10
-22.867591436385712
20
-18.809114566425862
30
0
10
-22.804678401947037
20
-18.716510877311226
30
0
0
SPLINE
5
198
100
AcDbEntity
8
0
100
AcDbSpline
70
0
71
3
72
9
73
5
74
0
42
0.000000001
43
0.0000000001
44
0.0000000001
40
0
40
0
40
0
40
0
40
0.018398552853767812
40
0.043792614654818582
40
0.043792614654818582
40
0.043792614654818582
40
0.043792614654818582
10
-22.804678401947037
20
-18.716510877311226
30
0
10
-22.820219995625273
20
-18.655413010470788
30
0
10
-22.857212417175063
20
-18.509986608729267
30
0
10
-22.980634504716591
20
-18.421364698010201
30
0
10
-23.052203378677383
20
-18.369975433051582
30
0
0
SPLINE
5
199
100
AcDbEntity
8
0
100
AcDbSpline
70
0
71
3
72
9
73
5
74
0
42
0.000000001
43
0.0000000001
44
0.0000000001
40
0
40
0
40
0
40
0
40
0.033452445361174796
40
0.072841478593035941
40
0.072841478593035941
40
0.072841478593035941
40
0.072841478593035941
10
-23.052203378677383
20
-18.369975433051582
30
0
10
-23.149576403923199
20
-18.314306203227005
30
0
10
-23.361602611795405
20
-18.193088487488239
30
0
10
-23.600576792959483
20
-18.141217863552505
30
0
10
-23.729802093505874
20
-18.113168821036812
30
0
0
LINE
5
200
100
AcDbEntity
8
0
100
AcDbLine
10
-23.729802093505874
20
-18.113168821036815
30
0
11
-25.954431018829361
21
-18.113168821036812
31
0
0
LINE
5
201
100
AcDbEntity
8
0
100
AcDbLine
10
-26.007028541564956
20
-27.6243058297038
30
0
11
-26.007028541564953
21
-26.934331998527043
31
0
0
LINE
5
202
100
AcDbEntity
8
0
100
AcDbLine
10
-26.007028541564953
20
-26.934331998527043
30
0
11
-22.216807327270523
21
-26.535197839438908
31
0
0
LINE
5
203
100
AcDbEntity
8
0
100
AcDbLine
10
-22.216807327270523
20
-26.535197839438908
30
0
11
-22.216807327270523
21
-27.181855783164494
31
0
0
LINE
5
204
100
AcDbEntity
8
0
100
AcDbLine
10
-22.216807327270523
20
-27.181855783164494
30
0
11
-24.252698144912735
21
-27.308713540732853
31
0
0
SPLINE
5
205
100
AcDbEntity
8
0
100
AcDbSpline
70
0
71
3
72
9
73
5
74
0
42
0.000000001
43
0.0000000001
44
0.0000000001
40
0
40
0
40
0
40
0
40
0.046245109245440792
40
0.093852496601792845
40
0.093852496601792845
40
0.093852496601792845
40
0.093852496601792845
10
-24.252698144912735
20
-27.308713540732853
30
0
10
-24.406601978534468
20
-27.317516328218243
30
0
10
-24.718943310572961
20
-27.335381213738877
30
0
10
-25.031600450540203
20
-27.346426581838443
30
0
10
-25.190198144912735
20
-27.352029428184025
30
0
0
LINE
5
206
100
AcDbEntity
8
0
100
AcDbLine
10
-25.190198144912742
20
-27.352029428184021
30
0
11
-25.190198144912735
21
-27.376782045066349
31
0
0
LINE
5
207
100
AcDbEntity
8
0
100
AcDbLine
10
-25.190198144912735
20
-27.376782045066349
30
0
11
-25.109752140045181
21
-27.382969007194035
31
0
0
SPLINE
5
208
100
AcDbEntity
8
0
100
AcDbSpline
70
0
71
3
72
9
73
5
74
0
42
0.000000001
43
0.0000000001
44
0.0000000001
40
0
40
0
40
0
40
0
40
0.05568939918578017
40
0.088226176272140591
40
0.088226176272140591
40
0.088226176272140591
40
0.088226176272140591
10
-25.109752140045181
20
-27.382969007194035
30
0
10
-24.92441655178628
20
-27.394400821504856
30
0
10
-24.630797828684578
20
-27.41251172374556
30
0
10
-24.33874475195319
20
-27.447440287223522
30
0
10
-24.231039009094253
20
-27.460321530997746
30
0
0
LINE
5
209
100
AcDbEntity
8
0
100
AcDbLine
10
-24.231039009094253
20
-27.460321530997746
30
0
11
-22.470520458221451
21
-27.763539895713322
31
0
0
LINE
5
210
100
AcDbEntity
8
0
100
AcDbLine
10
-22.470520458221451
20
-27.763539895713322
30
0
11
-22.470520458221451
21
-28.397821530997746
31
0
0
LINE
5
211
100
AcDbEntity
8
0
100
AcDbLine
10
-22.470520458221451
20
-28.397821530997746
30
0
11
-24.231039009094253
21
-28.701039895713322
31
0
0
SPLINE
5
212
100
AcDbEntity
8
0
100
AcDbSpline
70
0
71
3
72
9
73
5
74
0
42
0.000000001
43
0.0000000001
44
0.0000000001
40
0
40
0
40
0
40
0
40
0.028533379903709227
40
0.073360459494970831
40
0.073360459494970831
40
0.073360459494970831
40
0.073360459494970831
10
-24.231039009094253
20
-28.701039895713322
30
0
10
-24.325312122127791
20
-28.713866505386221
30
0
10
-24.567692061465529
20
-28.74684423121268
30
0
10
-24.811970637913078
20
-28.760663874709561
30
0
10
-24.961237630844131
20
-28.769108400046818
30
0
0
SPLINE
5
213
100
AcDbEntity
8
0
100
AcDbSpline
70
0
71
3
72
9
73
5
74
0
42
0.000000001
43
0.0000000001
44
0.0000000001
40
0
40
0
40
0
40
0
40
0.010697170323753048
40
0.022948314857093668
40
0.022948314857093668
40
0.022948314857093668
40
0.022948314857093668
10
-24.961237630844131
20
-28.769108400046818
30
0
10
-24.996821647666671
20
-28.771393789574176
30
0
10
-25.073158959049895
20
-28.776296566370057
30
0
10
-25.149462747071375
20
-28.781696554214125
30
0
10
-25.190198144912735
20
-28.784579381644718
30
0
0
LINE
5
214
100
AcDbEntity
8
0
100
AcDbLine
10
-25.190198144912735
20
-28.784579381644718
30
0
11
-25.190198144912735
21
-28.809331998527043
31
0
0
SPLINE
5
215
100
AcDbEntity
8
0
100
AcDbSpline
70
0
71
3
72
9
73
5
74
0
42
0.000000001
43
0.0000000001
44
0.0000000001
40
0
40
0
40
0
40
0
40
0.047765078063600898
40
0.093868716541577135
40
0.093868716541577135
40
0.093868716541577135
40
0.093868716541577135
10
-25.190198144912735
20
-28.809331998527043
30
0
10
-25.031075071209983
20
-28.815039369554821
30
0
10
-24.718363791208745
20
-28.826255588912627
30
0
10
-24.406077579054894
20
-28.846030236907104
30
0
10
-24.252698144912735
20
-28.855742559134953
30
0
0
LINE
5
216
100
AcDbEntity
8
0
100
AcDbLine
10
-24.252698144912735
20
-28.855742559134949
30
0
11
-22.216807327270523
21
-28.982597932517521
31
0
0
LINE
5
217
100
AcDbEntity
8
0
100
AcDbLine
10
-22.216807327270523
20
-28.982597932517521
30
0
11
-22.216807327270523
21
-29.62616358727216
31
0
0
LINE
5
218
100
AcDbEntity
8
0
100
AcDbLine
10
-22.216807327270523
20
-29.62616358727216
30
0
11
-26.007028541564956
21
-29.227029428184025
31
0
0
LINE
5
219
100
AcDbEntity
8
0
100
AcDbLine
10
-26.007028541564956
20
-29.227029428184025
30
0
11
-26.007028541564953
21
-28.537053212821476
31
0
0
LINE
5
220
100
AcDbEntity
8
0
100
AcDbLine
10
-26.007028541564953
20
-28.537053212821476
30
0
11
-24.0979954814911
21
-28.168861016929142
31
0
0
SPLINE
5
221
100
AcDbEntity
8
0
100
AcDbSpline
70
0
71
3
72
9
73
5
74
0
42
0.000000001
43
0.0000000001
44
0.0000000001
40
0
40
0
40
0
40
0
40
0.027229140505077826
40
0.073723833947654471
40
0.073723833947654471
40
0.073723833947654471
40
0.073723833947654471
10
-24.097995481491104
20
-28.168861016929142
30
0
10
-24.008095583601197
20
-28.156204484372434
30
0
10
-23.764688519661348
20
-28.121936487393597
30
0
10
-23.51939822410057
20
-28.105174368686924
30
0
10
-23.364703378677383
20
-28.09460316628217
30
0
0
LINE
5
222
100
AcDbEntity
8
0
100
AcDbLine
10
-23.364703378677383
20
-28.09460316628217
30
0
11
-23.364703378677383
21
-28.069850549399845
31
0
0
LINE
5
223
100
AcDbEntity
8
0
100
AcDbLine
10
-23.364703378677383
20
-28.069850549399845
30
0
11
-23.435866556167618
21
-28.06366358727216
31
0
0
SPLINE
5
224
100
AcDbEntity
8
0
100
AcDbSpline
70
0
71
3
72
9
73
5
74
0
42
0.000000001
43
0.0000000001
44
0.0000000001
40
0
40
0
40
0
40
0
40
0.042417802054737205
40
0.066605536964945464
40
0.066605536964945464
40
0.066605536964945464
40
0.066605536964945464
10
-23.435866556167618
20
-28.06366358727216
30
0
10
-23.576839853624101
20
-28.052228678427326
30
0
10
-23.798199794968802
20
-28.034273286896834
30
0
10
-24.01812856577078
20
-28.003628891631127
30
0
10
-24.097995481491104
20
-27.992500409781925
30
0
0
LINE
5
225
100
AcDbEntity
8
0
100
AcDbLine
10
-24.097995481491111
20
-27.992500409781925
30
0
11
-26.007028541564956
21
-27.6243058297038
31
0
0
LWPOLYLINE
5
226
100
AcDbEntity
8
0
100
AcDbPolyline
90
4
70
1
43
0.0
10
-25.954431018829361
20
-31.618737325370304
10
-25.954431018829357
20
-30.882350549399845
10
-22.216807327270523
20
-30.882350549399845
10
-22.216807327270523
20
-31.618737325370304
0
SPLINE
5
227
100
AcDbEntity
8
0
100
AcDbSpline
70
0
71
3
72
9
73
5
74
0
42
0.000000001
43
0.0000000001
44
0.0000000001
40
0
40
0
40
0
40
0
40
0.022322613769604014
40
0.047273769903937585
40
0.047273769903937585
40
0.047273769903937585
40
0.047273769903937585
10
-25.258267841339123
20
-38.110071763694279
30
0
10
-25.206198203916699
20
-38.163638384053591
30
0
10
-25.095927601921126
20
-38.277079225324876
30
0
10
-24.961189431691473
20
-38.360158922726001
30
0
10
-24.890074453353893
20
-38.404008493125431
30
0
0
LINE
5
228
100
AcDbEntity
8
0
100
AcDbLine
10
-24.890074453353893
20
-38.404008493125431
30
0
11
-25.378936252594006
21
-38.834082231223576
31
0
0
SPLINE
5
229
100
AcDbEntity
8
0
100
AcDbSpline
70
0
71
3
72
9
73
5
74
0
42
0.000000001
43
0.0000000001
44
0.0000000001
40
0
40
0
40
0
40
0
40
0.070256265101451262
40
0.13480370578531375
40
0.13480370578531375
40
0.13480370578531375
40
0.13480370578531375
10
-25.378936252594006
20
-38.834082231223576
30
0
10
-25.583678458636733
20
-38.697465356660537
30
0
10
-25.976526100983865
20
-38.435332706464685
30
0
10
-26.04736630294315
20
-37.970594835131941
30
0
10
-26.081286392211926
20
-37.748066529929631
30
0
0
SPLINE
5
230
100
AcDbEntity
8
0
100
AcDbSpline
70
0
71
3
72
9
73
5
74
0
42
0.000000001
43
0.0000000001
44
0.0000000001
40
0
40
0
40
0
40
0
40
0.058969416536105289
40
0.12029004645192654
40
0.12029004645192654
40
0.12029004645192654
40
0.12029004645192654
10
-26.081286392211926
20
-37.748066529929631
30
0
10
-26.05701254733285
20
-37.545957661832993
30
0
10
-26.007497017087054
20
-37.133681492934429
30
0
10
-25.697735274242476
20
-36.856137553976666
30
0
10
-25.539827070236218
20
-36.714653119742863
30
0
0
SPLINE
5
231
100
AcDbEntity
8
0
100
AcDbSpline
70
0
71
3
72
9
73
5
74
0
42
0.000000001
43
0.0000000001
44
0.0000000001
40
0
40
0
40
0
40
0
40
0.070027322725666599
40
0.15071516244734737
40
0.15071516244734737
40
0.15071516244734737
40
0.15071516244734737
10
-25.539827070236218
20
-36.714653119742863
30
0
10
-25.334040337218042
20
-36.597492144559148
30
0
10
-24.8911391996457
20
-36.345334347859165
30
0
10
-24.380601738814491
20
-36.323899686048414
30
0
10
-24.107277116775524
20
-36.31242428749799
30
0
0
SPLINE
5
232
100
AcDbEntity
8
0
100
AcDbSpline
70
0
71
3
72
9
73
5
74
0
42
0.000000001
43
0.0000000001
44
0.0000000001
40
0
40
0
40
0
40
0
40
0.07671772673469146
40
0.14441287723623408
40
0.14441287723623408
40
0.14441287723623408
40
0.14441287723623408
10
-24.107277116775524
20
-36.31242428749799
30
0
10
-23.848171693841724
20
-36.323268613548684
30
0
10
-23.360433576121121
20
-36.343681892113175
30
0
10
-22.92727943484314
20
-36.566763057944222
30
0
10
-22.724233589172375
20
-36.6713348481059
30
0
0
SPLINE
5
233
100
AcDbEntity
8
0
100
AcDbSpline
70
0
71
3
72
9
73
5
74
0
42
0.000000001
43
0.0000000001
44
0.0000000001
40
0
40
0
40
0
40
0
40
0.066783652880375508
40
0.12912770386139777
40
0.12912770386139777
40
0.12912770386139777
40
0.12912770386139777
10
-22.724233589172375
20
-36.6713348481059
30
0
10
-22.541103384334026
20
-36.814226193078866
30
0
10
-22.187016989856609
20
-37.090509841580058
30
0
10
-22.125729219155975
20
-37.5339631613408
30
0
10
-22.096138916015637
20
-37.748066529929631
30
0
0
SPLINE
5
234
100
AcDbEntity
8
0
100
AcDbSpline
70
0
71
3
72
9
73
5
74
0
42
0.000000001
43
0.0000000001
44
0.0000000001
40
0
40
0
40
0
40
0
40
0.056431726828323384
40
0.11710138694870662
40
0.11710138694870662
40
0.11710138694870662
40
0.11710138694870662
10
-22.096138916015637
20
-37.748066529929631
30
0
10
-22.121941036782751
20
-37.941085793587959
30
0
10
-22.175482976713788
20
-38.341619761846125
30
0
10
-22.481926176788999
20
-38.60691013082424
30
0
10
-22.640692911148083
20
-38.744355783164494
30
0
0
LINE
5
235
100
AcDbEntity
8
0
100
AcDbLine
10
-22.640692911148079
20
-38.744355783164501
30
0
11
-23.179059944152844
21
-38.397819146811955
31
0
0
SPLINE
5
236
100
AcDbEntity
8
0
100
AcDbSpline
70
0
71
3
72
9
73
5
74
0
42
0.000000001
43
0.0000000001
44
0.0000000001
40
0
40
0
40
0
40
0
40
0.020498228073619274
40
0.035889543925503087
40
0.035889543925503087
40
0.035889543925503087
40
0.035889543925503087
10
-23.179059944152844
20
-38.397819146811955
30
0
10
-23.123300835430534
20
-38.358158099099008
30
0
10
-23.02567439793803
20
-38.288717125522503
30
0
10
-22.938135471919956
20
-38.206998522296274
30
0
10
-22.900594196319592
20
-38.17195330590009
30
0
0
SPLINE
5
237
100
AcDbEntity
8
0
100
AcDbSpline
70
0
71
3
72
9
73
5
74
0
42
0.000000001
43
0.0000000001
44
0.0000000001
40
0
40
0
40
0
40
0
40
0.022912348896059819
40
0.045744066577307285
40
0.045744066577307285
40
0.045744066577307285
40
0.045744066577307285
10
-22.900594196319592
20
-38.17195330590009
30
0
10
-22.850960260660376
20
-38.11143254101021
30
0
10
-22.751867056921697
20
-37.990603990825726
30
0
10
-22.737560980926887
20
-37.83501027696105
30
0
10
-22.73042055130006
20
-37.757350549399845
30
0
0
SPLINE
5
238
100
AcDbEntity
8
0
100
AcDbSpline
70
0
71
3
72
9
73
5
74
0
42
0.000000001
43
0.0000000001
44
0.0000000001
40
0
40
0
40
0
40
0
40
0.023481342623779326
40
0.050884450589168982
40
0.050884450589168982
40
0.050884450589168982
40
0.050884450589168982
10
-22.73042055130006
20
-37.757350549399845
30
0
10
-22.744065865223831
20
-37.677536801655059
30
0
10
-22.773635481972438
20
-37.504579114842748
30
0
10
-22.912464131315772
20
-37.395370965429009
30
0
10
-22.987228355407726
20
-37.336558446586125
30
0
0
SPLINE
5
239
100
AcDbEntity
8
0
100
AcDbSpline
70
0
71
3
72
9
73
5
74
0
42
0.000000001
43
0.0000000001
44
0.0000000001
40
0
40
0
40
0
40
0
40
0.05218897924370812
40
0.11654470768548857
40
0.11654470768548857
40
0.11654470768548857
40
0.11654470768548857
10
-22.987228355407726
20
-37.336558446586125
30
0
10
-23.143217484779811
20
-37.254668478334636
30
0
10
-23.491561287403133
20
-37.071797639499543
30
0
10
-23.886241886486857
20
-37.06097452523008
30
0
10
-24.104183635711681
20
-37.054998025596134
30
0
0
SPLINE
5
240
100
AcDbEntity
8
0
100
AcDbSpline
70
0
71
3
72
9
73
5
74
0
42
0.000000001
43
0.0000000001
44
0.0000000001
40
0
40
0
40
0
40
0
40
0.057848951756870645
40
0.10576700701383551
40
0.10576700701383551
40
0.10576700701383551
40
0.10576700701383551
10
-24.104183635711681
20
-37.054998025596134
30
0
10
-24.299443855283862
20
-37.060543772427351
30
0
10
-24.656444084083347
20
-37.070683230899476
30
0
10
-24.979060706811165
20
-37.22172015908253
30
0
10
-25.125223121643078
20
-37.290147885978215
30
0
0
SPLINE
5
241
100
AcDbEntity
8
0
100
AcDbSpline
70
0
71
3
72
9
73
5
74
0
42
0.000000001
43
0.0000000001
44
0.0000000001
40
0
40
0
40
0
40
0
40
0.03121960031930655
40
0.056121164841715636
40
0.056121164841715636
40
0.056121164841715636
40
0.056121164841715636
10
-25.125223121643078
20
-37.290147885978215
30
0
10
-25.215098104993672
20
-37.351613663902903
30
0
10
-25.376659710657336
20
-37.462106143619316
30
0
10
-25.416812308785044
20
-37.651608411142846
30
0
10
-25.43462844848634
20
-37.735692605674259
30
0
0
SPLINE
5
242
100
AcDbEntity
8
0
100
AcDbSpline
70
0
71
3
72
9
73
5
74
0
42
0.000000001
43
0.0000000001
44
0.0000000001
40
0
40
0
40
0
40
0
40
0.018554486696269298
40
0.042046859206232572
40
0.042046859206232572
40
0.042046859206232572
40
0.042046859206232572
10
-25.43462844848634
20
-37.735692605674259
30
0
10
-25.424372084110331
20
-37.797746957806865
30
0
10
-25.401129840013503
20
-37.938370120816721
30
0
10
-25.309476364882851
20
-38.048525742335364
30
0
10
-25.258267841339123
20
-38.110071763694279
30
0
0
LINE
5
243
100
AcDbEntity
8
0
100
AcDbLine
10
-22.216807327270523
20
-33.917624101340763
30
0
11
-21.418539009094253
21
-33.917624101340763
31
0
0
LINE
5
244
100
AcDbEntity
8
0
100
AcDbLine
10
-21.418539009094253
20
-33.917624101340763
30
0
11
-21.050346813201916
21
-34.638539895713322
31
0
0
LINE
5
245
100
AcDbEntity
8
0
100
AcDbLine
10
-21.050346813201916
20
-34.638539895713322
30
0
11
-22.216807327270519
21
-34.638539895713322
31
0
0
LINE
5
246
100
AcDbEntity
8
0
100
AcDbLine
10
-22.216807327270519
20
-34.638539895713322
30
0
11
-22.216807327270519
21
-35.442995176017277
31
0
0
LINE
5
247
100
AcDbEntity
8
0
100
AcDbLine
10
-22.216807327270519
20
-35.442995176017277
30
0
11
-22.779925785064709
21
-35.442995176017277
31
0
0
LINE
5
248
100
AcDbEntity
8
0
100
AcDbLine
10
-22.779925785064709
20
-35.442995176017277
30
0
11
-22.779925785064709
21
-34.638539895713322
31
0
0
LINE
5
249
100
AcDbEntity
8
0
100
AcDbLine
10
-22.779925785064709
20
-34.638539895713322
30
0
11
-24.985990247726452
21
-34.638539895713322
31
0
0
SPLINE
5
250
100
AcDbEntity
8
0
100
AcDbSpline
70
0
71
3
72
9
73
5
74
0
42
0.000000001
43
0.0000000001
44
0.0000000001
40
0
40
0
40
0
40
0
40
0.021282975789853196
40
0.032691817979329713
40
0.032691817979329713
40
0.032691817979329713
40
0.032691817979329713
10
-24.985990247726452
20
-34.638539895713322
30
0
10
-25.057273420678385
20
-34.637388446659806
30
0
10
-25.16676828352761
20
-34.635619757767707
30
0
10
-25.273588328448724
20
-34.65842765115336
30
0
10
-25.310866556167614
20
-34.666387185752384
30
0
0
SPLINE
5
251
100
AcDbEntity
8
0
100
AcDbSpline
70
0
71
3
72
9
73
5
74
0
42
0.000000001
43
0.0000000001
44
0.0000000001
40
0
40
0
40
0
40
0
40
0.011696135419132513
40
0.022958688792262351
40
0.022958688792262351
40
0.022958688792262351
40
0.022958688792262351
10
-25.310866556167614
20
-34.666387185752384
30
0
10
-25.34695987467364
20
-34.686601758002539
30
0
10
-25.417808512908824
20
-34.726281537410756
30
0
10
-25.42909283930948
20
-34.806493767557797
30
0
10
-25.43462844848634
20
-34.84584246605634
30
0
0
SPLINE
5
252
100
AcDbEntity
8
0
100
AcDbSpline
70
0
71
3
72
9
73
5
74
0
42
0.000000001
43
0.0000000001
44
0.0000000001
40
0
40
0
40
0
40
0
40
0.017729825470285402
40
0.039805426586739703
40
0.039805426586739703
40
0.039805426586739703
40
0.039805426586739703
10
-25.43462844848634
20
-34.84584246605634
30
0
10
-25.425252472721684
20
-34.905215445435495
30
0
10
-25.404202366187651
20
-35.038514375866235
30
0
10
-25.318290060339102
20
-35.143457940414258
30
0
10
-25.270644149780285
20
-35.201658353507511
30
0
0
LINE
5
253
100
AcDbEntity
8
0
100
AcDbLine
10
-25.270644149780285
20
-35.201658353507511
30
0
11
-25.765692911148083
21
-35.412055597007267
31
0
0
SPLINE
5
254
100
AcDbEntity
8
0
100
AcDbSpline
70
0
71
3
72
9
73
5
74
0
42
0.000000001
43
0.0000000001
44
0.0000000001
40
0
40
0
40
0
40
0
40
0.039388553465527672
40
0.079045828991745087
40
0.079045828991745087
40
0.079045828991745087
40
0.079045828991745087
10
-25.765692911148083
20
-35.412055597007267
30
0
10
-25.850521068702015
20
-35.307651612176841
30
0
10
-26.020756110249337
20
-35.098131363148511
30
0
10
-26.044580888945248
20
-34.82917155440574
30
0
10
-26.056533775329601
20
-34.694234475791447
30
0
0
SPLINE
5
255
100
AcDbEntity
8
0
100
AcDbSpline
70
0
71
3
72
9
73
5
74
0
42
0.000000001
43
0.0000000001
44
0.0000000001
40
0
40
0
40
0
40
0
40
0.040792914237089715
40
0.079299401624613575
40
0.079299401624613575
40
0.079299401624613575
40
0.079299401624613575
10
-26.056533775329601
20
-34.694234475791447
30
0
10
-26.043154280934274
20
-34.552207696454779
30
0
10
-26.017145207558862
20
-34.276114683079733
30
0
10
-25.79789873822633
20
-34.107697044262736
30
0
10
-25.691436252594009
20
-34.025916204154484
30
0
0
SPLINE
5
256
100
AcDbEntity
8
0
100
AcDbSpline
70
0
71
3
72
9
73
5
74
0
42
0.000000001
43
0.0000000001
44
0.0000000001
40
0
40
0
40
0
40
0
40
0.026639557211919448
40
0.063866830100607355
40
0.063866830100607355
40
0.063866830100607355
40
0.063866830100607355
10
-25.691436252594009
20
-34.025916204154484
30
0
10
-25.607697829737496
20
-33.994544558939282
30
0
10
-25.406939702155817
20
-33.919332815778638
30
0
10
-25.191824524130674
20
-33.91825332477503
30
0
10
-25.066436252594009
20
-33.917624101340763
30
0
0
LINE
5
257
100
AcDbEntity
8
0
100
AcDbLine
10
-25.066436252594009
20
-33.917624101340763
30
0
11
-22.779925785064712
21
-33.917624101340763
31
0
0
LINE
5
258
100
AcDbEntity
8
0
100
AcDbLine
10
-22.779925785064712
20
-33.917624101340763
30
0
11
-22.779925785064712
21
-33.246213540732853
31
0
0
LINE
5
259
100
AcDbEntity
8
0
100
AcDbLine
10
-22.779925785064712
20
-33.246213540732853
30
0
11
-22.216807327270523
21
-33.246213540732853
31
0
0
LINE
5
260
100
AcDbEntity
8
0
100
AcDbLine
10
-22.216807327270523
20
-33.246213540732853
30
0
11
-22.216807327270523
21
-33.917624101340763
31
0
0
LWPOLYLINE
5
261
100
AcDbEntity
8
0
100
AcDbPolyline
90
4
70
1
43
0.0
10
-21.45566793441774
20
-31.643489942252629
10
-21.45566793441774
20
-30.857597932517521
10
-20.607895574569717
20
-30.857597932517521
10
-20.607895574569717
20
-31.643489942252629
0
SPLINE
5
262
100
AcDbEntity
8
0
100
AcDbSpline
70
0
71
3
72
9
73
5
74
0
42
0.000000001
43
0.0000000001
44
0.0000000001
40
0
40
0
40
0
40
0
40
0.076730444561964734
40
0.16063853038224951
40
0.16063853038224951
40
0.16063853038224951
40
0.16063853038224951
10
-26.068910083770763
20
-24.907721624076359
30
0
10
-26.03249382036396
20
-24.645829184316568
30
0
10
-25.95625478553135
20
-24.09754594574807
30
0
10
-25.538407137397343
20
-23.731400600742806
30
0
10
-25.320148191452041
20
-23.540147885978215
30
0
0
LINE
5
263
100
AcDbEntity
8
0
100
AcDbLine
10
-25.320148191452041
20
-23.540147885978211
30
0
11
-24.769406042099014
21
-23.920716390311711
31
0
0
SPLINE
5
264
100
AcDbEntity
8
0
100
AcDbSpline
70
0
71
3
72
9
73
5
74
0
42
0.000000001
43
0.0000000001
44
0.0000000001
40
0
40
0
40
0
40
0
40
0.066564816263521273
40
0.11909047699990477
40
0.11909047699990477
40
0.11909047699990477
40
0.11909047699990477
10
-24.769406042099014
20
-23.920716390311711
30
0
10
-24.951775855005067
20
-24.062119511304495
30
0
10
-25.278051945415733
20
-24.315102484496208
30
0
10
-25.360940822872276
20
-24.715605900668759
30
0
10
-25.397499523162857
20
-24.892250642478459
30
0
0
SPLINE
5
265
100
AcDbEntity
8
0
100
AcDbSpline
70
0
71
3
72
9
73
5
74
0
42
0.000000001
43
0.0000000001
44
0.0000000001
40
0
40
0
40
0
40
0
40
0.022636474607625315
40
0.046245705347467796
40
0.046245705347467796
40
0.046245705347467796
40
0.046245705347467796
10
-25.397499523162857
20
-24.892250642478459
30
0
10
-25.388854808004034
20
-24.969398640385741
30
0
10
-25.371193888758548
20
-25.127009913395781
30
0
10
-25.261611589488595
20
-25.241974851669276
30
0
10
-25.20566793441774
20
-25.300666436851017
30
0
0
SPLINE
5
266
100
AcDbEntity
8
0
100
AcDbSpline
70
0
71
3
72
9
73
5
74
0
42
0.000000001
43
0.0000000001
44
0.0000000001
40
0
40
0
40
0
40
0
40
0.024734393365229358
40
0.058731831737637533
40
0.058731831737637533
40
0.058731831737637533
40
0.058731831737637533
10
-25.20566793441774
20
-25.300666436851017
30
0
10
-25.133347815717777
20
-25.342821067609947
30
0
10
-24.961623650907523
20
-25.442917263386313
30
0
10
-24.76149207572394
20
-25.444925170348558
30
0
10
-24.645644149780289
20
-25.446087464988224
30
0
0
SPLINE
5
267
100
AcDbEntity
8
0
100
AcDbSpline
70
0
71
3
72
9
73
5
74
0
42
0.000000001
43
0.0000000001
44
0.0000000001
40
0
40
0
40
0
40
0
40
0.034832770714611647
40
0.06635290443625072
40
0.06635290443625072
40
0.06635290443625072
40
0.06635290443625072
10
-24.645644149780289
20
-25.446087464988224
30
0
10
-24.527040831901317
20
-25.439108480373321
30
0
10
-24.301113509566783
20
-25.425814220694448
30
0
10
-24.11726212917802
20
-25.294823478542881
30
0
10
-24.029925785064712
20
-25.232597932517521
30
0
0
SPLINE
5
268
100
AcDbEntity
8
0
100
AcDbSpline
70
0
71
3
72
9
73
5
74
0
42
0.000000001
43
0.0000000001
44
0.0000000001
40
0
40
0
40
0
40
0
40
0.025122577208252467
40
0.061834098818105115
40
0.061834098818105115
40
0.061834098818105115
40
0.061834098818105115
10
-24.029925785064712
20
-25.232597932517521
30
0
10
-23.97165532606806
20
-25.172314943744599
30
0
10
-23.828234478361736
20
-25.023940664547979
30
0
10
-23.708229265117474
20
-24.855888111701873
30
0
10
-23.636980972290054
20
-24.756113633811466
30
0
0
LINE
5
269
100
AcDbEntity
8
0
100
AcDbLine
10
-23.636980972290054
20
-24.756113633811466
30
0
11
-23.522499523162857
21
-24.598316297233097
31
0
0
SPLINE
5
270
100
AcDbEntity
8
0
100
AcDbSpline
70
0
71
3
72
9
73
5
74
0
42
0.000000001
43
0.0000000001
44
0.0000000001
40
0
40
0
40
0
40
0
40
0.04553160480555625
40
0.080380137191649728
40
0.080380137191649728
40
0.080380137191649728
40
0.080380137191649728
10
-23.522499523162857
20
-24.598316297233097
30
0
10
-23.431903677676608
20
-24.475639672495625
30
0
10
-23.271968473980706
20
-24.259070017885005
30
0
10
-23.06470877678203
20
-24.087795412553152
30
0
10
-22.974852046966568
20
-24.013539895713322
30
0
0
SPLINE
5
271
100
AcDbEntity
8
0
100
AcDbSpline
70
0
71
3
72
9
73
5
74
0
42
0.000000001
43
0.0000000001
44
0.0000000001
40
0
40
0
40
0
40
0
40
0.052443162169570449
40
0.10127463259440986
40
0.10127463259440986
40
0.10127463259440986
40
0.10127463259440986
10
-22.974852046966568
20
-24.013539895713322
30
0
10
-22.823137138840835
20
-23.921525523442678
30
0
10
-22.530155729179704
20
-23.743833687946886
30
0
10
-22.189317369389627
20
-23.712873338039408
30
0
10
-22.024975738525406
20
-23.697945222556584
30
0
0
SPLINE
5
272
100
AcDbEntity
8
0
100
AcDbSpline
70
0
71
3
72
9
73
5
74
0
42
0.000000001
43
0.0000000001
44
0.0000000001
40
0
40
0
40
0
40
0
40
0.050258559610572254
40
0.097097693392735079
40
0.097097693392735079
40
0.097097693392735079
40
0.097097693392735079
10
-22.024975738525406
20
-23.697945222556584
30
0
10
-21.854264986730989
20
-23.708922268905418
30
0
10
-21.524458076922734
20
-23.730129519749774
30
0
10
-21.252635149476475
20
-23.917138800607919
30
0
10
-21.121509990692154
20
-24.007350549399845
30
0
0
SPLINE
5
273
100
AcDbEntity
8
0
100
AcDbSpline
70
0
71
3
72
9
73
5
74
0
42
0.000000001
43
0.0000000001
44
0.0000000001
40
0
40
0
40
0
40
0
40
0.051331765991632715
40
0.10494226656628267
40
0.10494226656628267
40
0.10494226656628267
40
0.10494226656628267
10
-21.121509990692154
20
-24.007350549399845
30
0
10
-21.000599930363396
20
-24.13572674670359
30
0
10
-20.75341233538305
20
-24.398178054543095
30
0
10
-20.722630937399096
20
-24.757959152615371
30
0
10
-20.706906042099014
20
-24.941755876243107
30
0
0
SPLINE
5
274
100
AcDbEntity
8
0
100
AcDbSpline
70
0
71
3
72
9
73
5
74
0
42
0.000000001
43
0.0000000001
44
0.0000000001
40
0
40
0
40
0
40
0
40
0.062020361285526272
40
0.1279899315327761
40
0.1279899315327761
40
0.1279899315327761
40
0.1279899315327761
10
-20.706906042099014
20
-24.941755876243107
30
0
10
-20.731117400801793
20
-25.152471617480771
30
0
10
-20.781081800854516
20
-25.587320636978195
30
0
10
-21.075141086452462
20
-25.912674866247887
30
0
10
-21.226707420349136
20
-26.080371484458439
30
0
0
LINE
5
275
100
AcDbEntity
8
0
100
AcDbLine
10
-21.226707420349136
20
-26.080371484458439
30
0
11
-21.765074453353897
21
-25.699800595939152
31
0
0
SPLINE
5
276
100
AcDbEntity
8
0
100
AcDbSpline
70
0
71
3
72
9
73
5
74
0
42
0.000000001
43
0.0000000001
44
0.0000000001
40
0
40
0
40
0
40
0
40
0.022457298054589639
40
0.040437750009315265
40
0.040437750009315265
40
0.040437750009315265
40
0.040437750009315265
10
-21.765074453353897
20
-25.699800595939152
30
0
10
-21.703974329276264
20
-25.655821665209899
30
0
10
-21.593954346596984
20
-25.576630971735387
30
0
10
-21.508940095692925
20
-25.471275380526663
30
0
10
-21.47113891601564
20
-25.424429521262638
30
0
0
SPLINE
5
277
100
AcDbEntity
8
0
100
AcDbSpline
70
0
71
3
72
9
73
5
74
0
42
0.000000001
43
0.0000000001
44
0.0000000001
40
0
40
0
40
0
40
0
40
0.021959575318728296
40
0.045964428103425471
40
0.045964428103425471
40
0.045964428103425471
40
0.045964428103425471
10
-21.47113891601564
20
-25.424429521262638
30
0
10
-21.436865148762028
20
-25.358731877620734
30
0
10
-21.365125413913031
20
-25.221217623637543
30
0
10
-21.357531229300427
20
-25.066089549205806
30
0
10
-21.353565177917496
20
-24.98507414788007
30
0
0
SPLINE
5
278
100
AcDbEntity
8
0
100
AcDbSpline
70
0
71
3
72
9
73
5
74
0
42
0.000000001
43
0.0000000001
44
0.0000000001
40
0
40
0
40
0
40
0
40
0.024333356926495291
40
0.047389650885369547
40
0.047389650885369547
40
0.047389650885369547
40
0.047389650885369547
10
-21.353565177917496
20
-24.98507414788007
30
0
10
-21.360889936436301
20
-24.90119930997416
30
0
10
-21.375155035578778
20
-24.737851552472584
30
0
10
-21.493840279930907
20
-24.6252517370738
30
0
10
-21.551583728790298
20
-24.570469007194035
30
0
0
SPLINE
5
279
100
AcDbEntity
8
0
100
AcDbSpline
70
0
71
3
72
9
73
5
74
0
42
0.000000001
43
0.0000000001
44
0.0000000001
40
0
40
0
40
0
40
0
40
0.023386207758537163
40
0.049598229495585934
40
0.049598229495585934
40
0.049598229495585934
40
0.049598229495585934
10
-21.551583728790298
20
-24.570469007194035
30
0
10
-21.620027233809726
20
-24.530797220248633
30
0
10
-21.765184443755263
20
-24.446660005111646
30
0
10
-21.933126084133868
20
-24.438594508825005
30
0
10
-22.021881065368667
20
-24.434331998527043
30
0
0
SPLINE
5
280
100
AcDbEntity
8
0
100
AcDbSpline
70
0
71
3
72
9
73
5
74
0
42
0.000000001
43
0.0000000001
44
0.0000000001
40
0
40
0
40
0
40
0
40
0.028434704133544837
40
0.057771788680907363
40
0.057771788680907363
40
0.057771788680907363
40
0.057771788680907363
10
-22.021881065368667
20
-24.434331998527043
30
0
10
-22.117783698396245
20
-24.442265403721052
30
0
10
-22.312632451637736
20
-24.458383982139726
30
0
10
-22.478906152752593
20
-24.561449560697241
30
0
10
-22.563341579437271
20
-24.613787278830998
30
0
0
SPLINE
5
281
100
AcDbEntity
8
0
100
AcDbSpline
70
0
71
3
72
9
73
5
74
0
42
0.000000001
43
0.0000000001
44
0.0000000001
40
0
40
0
40
0
40
0
40
0.021507076006764159
40
0.055507142258460901
40
0.055507142258460901
40
0.055507142258460901
40
0.055507142258460901
10
-22.563341579437271
20
-24.613787278830998
30
0
10
-22.616944117681214
20
-24.661586636545639
30
0
10
-22.755285736727203
20
-24.78495095383801
30
0
10
-22.868422745984262
20
-24.93208085946176
30
0
10
-22.937723121643081
20
-25.022203073203556
30
0
0
LINE
5
282
100
AcDbEntity
8
0
100
AcDbLine
10
-22.937723121643078
20
-25.022203073203556
30
0
11
-23.117178401947037
21
-25.25116358727216
31
0
0
LINE
5
283
100
AcDbEntity
8
0
100
AcDbLine
10
-23.117178401947037
20
-25.25116358727216
30
0
11
-23.163588962554947
21
-25.309950456321232
31
0
0
SPLINE
5
284
100
AcDbEntity
8
0
100
AcDbSpline
70
0
71
3
72
9
73
5
74
0
42
0.000000001
43
0.0000000001
44
0.0000000001
40
0
40
0
40
0
40
0
40
0.050709624314064519
40
0.086841126620225001
40
0.086841126620225001
40
0.086841126620225001
40
0.086841126620225001
10
-23.163588962554947
20
-25.309950456321232
30
0
10
-23.268486687484405
20
-25.443123510743277
30
0
10
-23.448125892783093
20
-25.671184716833885
30
0
10
-23.666705143834022
20
-25.861820608309024
30
0
10
-23.757648191452041
20
-25.941137418448918
30
0
0
SPLINE
5
285
100
AcDbEntity
8
0
100
AcDbSpline
70
0
71
3
72
9
73
5
74
0
42
0.000000001
43
0.0000000001
44
0.0000000001
40
0
40
0
40
0
40
0
40
0.045871747578037407
40
0.092801793805743771
40
0.092801793805743771
40
0.092801793805743771
40
0.092801793805743771
10
-23.757648191452041
20
-25.941137418448918
30
0
10
-23.890061406139324
20
-26.022352723751453
30
0
10
-24.157942716430803
20
-26.186657037724551
30
0
10
-24.471570827259033
20
-26.208537947818982
30
0
10
-24.630173168182388
20
-26.21960316628217
30
0
0
SPLINE
5
286
100
AcDbEntity
8
0
100
AcDbSpline
70
0
71
3
72
9
73
5
74
0
42
0.000000001
43
0.0000000001
44
0.0000000001
40
0
40
0
40
0
40
0
40
0.055639115043763211
40
0.10444985086910479
40
0.10444985086910479
40
0.10444985086910479
40
0.10444985086910479
10
-24.630173168182388
20
-26.21960316628217
30
0
10
-24.818904562885642
20
-26.210893878738556
30
0
10
-25.173205058419548
20
-26.194544161738374
30
0
10
-25.475780890350535
20
-26.011299148312318
30
0
10
-25.617178401947037
20
-25.925666436851017
30
0
0
SPLINE
5
287
100
AcDbEntity
8
0
100
AcDbSpline
70
0
71
3
72
9
73
5
74
0
42
0.000000001
43
0.0000000001
44
0.0000000001
40
0
40
0
40
0
40
0
40
0.05480987623762959
40
0.11459606846582182
40
0.11459606846582182
40
0.11459606846582182
40
0.11459606846582182
10
-25.617178401947037
20
-25.925666436851017
30
0
10
-25.748864864090546
20
-25.790611192953055
30
0
10
-26.024193908191883
20
-25.508238725821407
30
0
10
-26.053579339357718
20
-25.113606275062985
30
0
10
-26.068910083770763
20
-24.907721624076359
30
0
0
SPLINE
5
288
100
AcDbEntity
8
0
100
AcDbSpline
70
0
71
3
72
9
73
5
74
0
42
0.000000001
43
0.0000000001
44
0.0000000001
40
0
40
0
40
0
40
0
40
0.068266506182981995
40
0.13887702312643596
40
0.13887702312643596
40
0.13887702312643596
40
0.13887702312643596
10
-26.075099430084244
20
-15.378018960654732
30
0
10
-26.05036686858082
20
-15.145587252612483
30
0
10
-26.000052523993151
20
-14.672743020529202
30
0
10
-25.680593441756514
20
-14.319830045550145
30
0
10
-25.51816793441774
20
-14.140395269095894
30
0
0
LINE
5
289
100
AcDbEntity
8
0
100
AcDbLine
10
-25.51816793441774
20
-14.140395269095894
30
0
11
-25.004554710388199
21
-14.502400502860542
31
0
0
SPLINE
5
290
100
AcDbEntity
8
0
100
AcDbSpline
70
0
71
3
72
9
73
5
74
0
42
0.000000001
43
0.0000000001
44
0.0000000001
40
0
40
0
40
0
40
0
40
0.053047629618659289
40
0.099371929801182188
40
0.099371929801182188
40
0.099371929801182188
40
0.099371929801182188
10
-25.004554710388199
20
-14.502400502860542
30
0
10
-25.128014728163272
20
-14.635790412155892
30
0
10
-25.359287271494431
20
-14.885664210438129
30
0
10
-25.406453003408984
20
-15.221474146503562
30
0
10
-25.428440294265762
20
-15.378018960654732
30
0
0
SPLINE
5
291
100
AcDbEntity
8
0
100
AcDbSpline
70
0
71
3
72
9
73
5
74
0
42
0.000000001
43
0.0000000001
44
0.0000000001
40
0
40
0
40
0
40
0
40
0.040609626770037446
40
0.07711301147776406
40
0.07711301147776406
40
0.07711301147776406
40
0.07711301147776406
10
-25.428440294265762
20
-15.378018960654732
30
0
10
-25.413866307069334
20
-15.529498618371267
30
0
10
-25.386191981266766
20
-15.81714106951444
30
0
10
-25.106169587009077
20
-15.871900008904108
30
0
10
-24.973613939285293
20
-15.897821530997749
30
0
0
SPLINE
5
292
100
AcDbEntity
8
0
100
AcDbSpline
70
0
71
3
72
9
73
5
74
0
42
0.000000001
43
0.0000000001
44
0.0000000001
40
0
40
0
40
0
40
0
40
0.016019413989672569
40
0.034777787321348626
40
0.034777787321348626
40
0.034777787321348626
40
0.034777787321348626
10
-24.973613939285293
20
-15.897821530997749
30
0
10
-24.919816825614333
20
-15.891053493138052
30
0
10
-24.803024502314788
20
-15.876360235231173
30
0
10
-24.706817646457697
20
-15.807894095151235
30
0
10
-24.654925785064712
20
-15.770964965522285
30
0
0
SPLINE
5
293
100
AcDbEntity
8
0
100
AcDbSpline
70
0
71
3
72
9
73
5
74
0
42
0.000000001
43
0.0000000001
44
0.0000000001
40
0
40
0
40
0
40
0
40
0.021406274347076471
40
0.040864585050547145
40
0.040864585050547145
40
0.040864585050547145
40
0.040864585050547145
10
-24.654925785064712
20
-15.770964965522285
30
0
10
-24.598951070631514
20
-15.725647841965189
30
0
10
-24.49209532163249
20
-15.639137437594046
30
0
10
-24.422144515183287
20
-15.520936393733491
30
0
10
-24.388836345672622
20
-15.464653119742866
30
0
0
LINE
5
294
100
AcDbEntity
8
0
100
AcDbLine
10
-24.388836345672622
20
-15.464653119742866
30
0
11
-24.231039009094253
21
-15.142870292365547
31
0
0
SPLINE
5
295
100
AcDbEntity
8
0
100
AcDbSpline
70
0
71
3
72
9
73
5
74
0
42
0.000000001
43
0.0000000001
44
0.0000000001
40
0
40
0
40
0
40
0
40
0.040940484485960243
40
0.07621368653651521
40
0.07621368653651521
40
0.07621368653651521
40
0.07621368653651521
10
-24.231039009094253
20
-15.142870292365547
30
0
10
-24.16822179685866
20
-15.020638997270865
30
0
10
-24.051282992090421
20
-14.793096560334313
30
0
10
-23.871702409335217
20
-14.611294643763209
30
0
10
-23.788588962554947
20
-14.527153119742866
30
0
0
SPLINE
5
296
100
AcDbEntity
8
0
100
AcDbSpline
70
0
71
3
72
9
73
5
74
0
42
0.000000001
43
0.0000000001
44
0.0000000001
40
0
40
0
40
0
40
0
40
0.031441952077646329
40
0.066546080694959042
40
0.066546080694959042
40
0.066546080694959042
40
0.066546080694959042
10
-23.788588962554947
20
-14.527153119742866
30
0
10
-23.699929631483784
20
-14.467641620115373
30
0
10
-23.512284443766024
20
-14.341687065935364
30
0
10
-23.28603425287487
20
-14.329417575982568
30
0
10
-23.166683635711685
20
-14.322945222556587
30
0
0
SPLINE
5
297
100
AcDbEntity
8
0
100
AcDbSpline
70
0
71
3
72
9
73
5
74
0
42
0.000000001
43
0.0000000001
44
0.0000000001
40
0
40
0
40
0
40
0
40
0.042689800517109279
40
0.082989881709758143
40
0.082989881709758143
40
0.082989881709758143
40
0.082989881709758143
10
-23.166683635711685
20
-14.322945222556587
30
0
10
-23.021252481645682
20
-14.333492317996834
30
0
10
-22.738531219736437
20
-14.353996096238129
30
0
10
-22.514388481987126
20
-14.526785611717791
30
0
10
-22.405544242858902
20
-14.610692605674263
30
0
0
SPLINE
5
298
100
AcDbEntity
8
0
100
AcDbSpline
70
0
71
3
72
9
73
5
74
0
42
0.000000001
43
0.0000000001
44
0.0000000001
40
0
40
0
40
0
40
0
40
0.041641258148653847
40
0.086633534141740076
40
0.086633534141740076
40
0.086633534141740076
40
0.086633534141740076
10
-22.405544242858902
20
-14.610692605674263
30
0
10
-22.315338162882959
20
-14.720782894245843
30
0
10
-22.127666803831076
20
-14.949822822376555
30
0
10
-22.106915764633843
20
-15.245907981754902
30
0
10
-22.09613891601564
20
-15.399676904380318
30
0
0
SPLINE
5
299
100
AcDbEntity
8
0
100
AcDbSpline
70
0
71
3
72
9
73
5
74
0
42
0.000000001
43
0.0000000001
44
0.0000000001
40
0
40
0
40
0
40
0
40
0.060959425841992307
40
0.12347859477650862
40
0.12347859477650862
40
0.12347859477650862
40
0.12347859477650862
10
-22.09613891601564
20
-15.399676904380318
30
0
10
-22.11548809178305
20
-15.606317776830647
30
0
10
-22.15468152250919
20
-16.024886754492869
30
0
10
-22.409546690107369
20
-16.359558756137741
30
0
10
-22.538588962554947
20
-16.529008493125435
30
0
0
LINE
5
300
100
AcDbEntity
8
0
100
AcDbLine
10
-22.538588962554947
20
-16.529008493125438
30
0
11
-23.117178401947037
21
-16.213415012061592
31
0
0
SPLINE
5
301
100
AcDbEntity
8
0
100
AcDbSpline
70
0
71
3
72
9
73
5
74
0
42
0.000000001
43
0.0000000001
44
0.0000000001
40
0
40
0
40
0
40
0
40
0.048097587782403688
40
0.087063728835633486
40
0.087063728835633486
40
0.087063728835633486
40
0.087063728835633486
10
-23.117178401947037
20
-16.213415012061592
30
0
10
-23.004769465780278
20
-16.093102222955359
30
0
10
-22.801292709702604
20
-15.875318327147687
30
0
10
-22.752332932257815
20
-15.583073545380406
30
0
10
-22.730420551300064
20
-15.452276811301704
30
0
0
SPLINE
5
302
100
AcDbEntity
8
0
100
AcDbSpline
70
0
71
3
72
9
73
5
74
0
42
0.000000001
43
0.0000000001
44
0.0000000001
40
0
40
0
40
0
40
0
40
0.016521418117476223
40
0.03113001620479916
40
0.03113001620479916
40
0.03113001620479916
40
0.03113001620479916
10
-22.730420551300064
20
-15.452276811301704
30
0
10
-22.732867869071658
20
-15.396419070259828
30
0
10
-22.73747915857151
20
-15.291170696819187
30
0
10
-22.787427127301036
20
-15.198659820025526
30
0
10
-22.810866556167618
20
-15.155246600806709
30
0
0
SPLINE
5
303
100
AcDbEntity
8
0
100
AcDbSpline
70
0
71
3
72
9
73
5
74
0
42
0.000000001
43
0.0000000001
44
0.0000000001
40
0
40
0
40
0
40
0
40
0.017711433260070613
40
0.037204760888684046
40
0.037204760888684046
40
0.037204760888684046
40
0.037204760888684046
10
-22.810866556167618
20
-15.155246600806709
30
0
10
-22.85231686460774
20
-15.110153500166065
30
0
10
-22.939387673143248
20
-15.015430616792946
30
0
10
-23.068234132323227
20
-15.005662115556309
30
0
10
-23.13574286460878
20
-15.000543937385078
30
0
0
SPLINE
5
304
100
AcDbEntity
8
0
100
AcDbSpline
70
0
71
3
72
9
73
5
74
0
42
0.000000001
43
0.0000000001
44
0.0000000001
40
0
40
0
40
0
40
0
40
0.02070778754760717
40
0.041368130922846857
40
0.041368130922846857
40
0.041368130922846857
40
0.041368130922846857
10
-23.13574286460878
20
-15.000543937385078
30
0
10
-23.206231970795628
20
-15.00695996168327
30
0
10
-23.347048683670828
20
-15.019777310352779
30
0
10
-23.455806615040778
20
-15.110124709784076
30
0
10
-23.510123214721695
20
-15.155246600806709
30
0
0
SPLINE
5
305
100
AcDbEntity
8
0
100
AcDbSpline
70
0
71
3
72
9
73
5
74
0
42
0.000000001
43
0.0000000001
44
0.0000000001
40
0
40
0
40
0
40
0
40
0.013629951369065417
40
0.032511483567236925
40
0.032511483567236925
40
0.032511483567236925
40
0.032511483567236925
10
-23.510123214721695
20
-15.155246600806709
30
0
10
-23.538774562065676
20
-15.190639403497009
30
0
10
-23.607116537992837
20
-15.275061753357752
30
0
10
-23.657325440190764
20
-15.371510270211129
30
0
10
-23.686485013961807
20
-15.42752419441938
30
0
0
LINE
5
306
100
AcDbEntity
8
0
100
AcDbLine
10
-23.686485013961807
20
-15.42752419441938
30
0
11
-23.875223121643081
21
-15.795716390311714
31
0
0
SPLINE
5
307
100
AcDbEntity
8
0
100
AcDbSpline
70
0
71
3
72
9
73
5
74
0
42
0.000000001
43
0.0000000001
44
0.0000000001
40
0
40
0
40
0
40
0
40
0.035550234448030779
40
0.069899331331796918
40
0.069899331331796918
40
0.069899331331796918
40
0.069899331331796918
10
-23.875223121643081
20
-15.795716390311714
30
0
10
-23.935157343724036
20
-15.898851930997651
30
0
10
-24.053000787301741
20
-16.10163836665475
30
0
10
-24.226316346227911
20
-16.259568673822955
30
0
10
-24.311485013961807
20
-16.337176904380318
30
0
0
SPLINE
5
308
100
AcDbEntity
8
0
100
AcDbSpline
70
0
71
3
72
9
73
5
74
0
42
0.000000001
43
0.0000000001
44
0.0000000001
40
0
40
0
40
0
40
0
40
0.037435726134242973
40
0.071842758753616814
40
0.071842758753616814
40
0.071842758753616814
40
0.071842758753616814
10
-24.311485013961807
20
-16.337176904380318
30
0
10
-24.414425469083341
20
-16.412039779401223
30
0
10
-24.611978102542729
20
-16.555708836345453
30
0
10
-24.854413138217801
20
-16.581589774207877
30
0
10
-24.970520458221451
20
-16.593984708487984
30
0
0
SPLINE
5
309
100
AcDbEntity
8
0
100
AcDbSpline
70
0
71
3
72
9
73
5
74
0
42
0.000000001
43
0.0000000001
44
0.0000000001
40
0
40
0
40
0
40
0
40
0.047302735264647629
40
0.091440740800561249
40
0.091440740800561249
40
0.091440740800561249
40
0.091440740800561249
10
-24.970520458221451
20
-16.593984708487984
30
0
10
-25.132756157937656
20
-16.581542348218953
30
0
10
-25.446373382889853
20
-16.557490068071886
30
0
10
-25.678431966485313
20
-16.346297445660959
30
0
10
-25.790445528030411
20
-16.244355783164497
30
0
0
SPLINE
5
310
100
AcDbEntity
8
0
100
AcDbSpline
70
0
71
3
72
9
73
5
74
0
42
0.000000001
43
0.0000000001
44
0.0000000001
40
0
40
0
40
0
40
0
40
0.043771086958227602
40
0.092713313802757352
40
0.092713313802757352
40
0.092713313802757352
40
0.092713313802757352
10
-25.790445528030411
20
-16.244355783164497
30
0
10
-25.873399830508177
20
-16.120992328440405
30
0
10
-26.049108701623247
20
-15.859691193731498
30
0
10
-26.066119589815521
20
-15.544437524928558
30
0
10
-26.075099430084244
20
-15.378018960654732
30
0
0
LINE
5
311
100
AcDbEntity
8
0
100
AcDbLine
10
-25.954431018829361
20
-8.6824754330515823
30
0
11
-25.954431018829361
21
-7.9522774073481521
31
0
0
LINE
5
312
100
AcDbEntity
8
0
100
AcDbLine
10
-25.954431018829361
20
-7.9522774073481521
30
0
11
-20.821386299133316
21
-7.9522774073481521
31
0
0
LINE
5
313
100
AcDbEntity
8
0
100
AcDbLine
10
-20.821386299133316
20
-7.9522774073481521
30
0
11
-20.821386299133316
21
-8.9547524306178055
31
0
0
SPLINE
5
314
100
AcDbEntity
8
0
100
AcDbSpline
70
0
71
3
72
9
73
5
74
0
42
0.000000001
43
0.0000000001
44
0.0000000001
40
0
40
0
40
0
40
0
40
0.055935642962280589
40
0.10216906729989117
40
0.10216906729989117
40
0.10216906729989117
40
0.10216906729989117
10
-20.821386299133316
20
-8.9547524306178055
30
0
10
-20.828177181292627
20
-9.1452272941025896
30
0
10
-20.840581045083518
20
-9.4931385384488358
30
0
10
-21.02759832645858
20
-9.7849533551111723
30
0
10
-21.112227163314834
20
-9.9170050475001297
30
0
0
SPLINE
5
315
100
AcDbEntity
8
0
100
AcDbSpline
70
0
71
3
72
9
73
5
74
0
42
0.000000001
43
0.0000000001
44
0.0000000001
40
0
40
0
40
0
40
0
40
0.023962974896821348
40
0.050482244011000273
40
0.050482244011000273
40
0.050482244011000273
40
0.050482244011000273
10
-21.112227163314834
20
-9.9170050475001297
30
0
10
-21.167765212592428
20
-9.9749931308986852
30
0
10
-21.284765934230634
20
-10.097155282654075
30
0
10
-21.431293153945248
20
-10.181895398831777
30
0
10
-21.508266649246231
20
-10.226410970389839
30
0
0
SPLINE
5
316
100
AcDbEntity
8
0
100
AcDbSpline
70
0
71
3
72
9
73
5
74
0
42
0.000000001
43
0.0000000001
44
0.0000000001
40
0
40
0
40
0
40
0
40
0.044434059463216505
40
0.090757849652056216
40
0.090757849652056216
40
0.090757849652056216
40
0.090757849652056216
10
-21.508266649246231
20
-10.226410970389839
30
0
10
-21.644597013311476
20
-10.287769186113792
30
0
10
-21.92305571896015
20
-10.413095113676247
30
0
10
-22.228158521632835
20
-10.428794092727395
30
0
10
-22.383886299133316
20
-10.4368070217967
30
0
0
SPLINE
5
317
100
AcDbEntity
8
0
100
AcDbSpline
70
0
71
3
72
9
73
5
74
0
42
0.000000001
43
0.0000000001
44
0.0000000001
40
0
40
0
40
0
40
0
40
0.072590225663363525
40
0.13086325037726509
40
0.13086325037726509
40
0.13086325037726509
40
0.13086325037726509
10
-22.383886299133316
20
-10.4368070217967
30
0
10
-22.631271251935846
20
-10.429478471238493
30
0
10
-23.077248636939412
20
-10.416266803443879
30
0
10
-23.451681467365688
20
-10.177867031786242
30
0
10
-23.618415317535415
20
-10.071708306968208
30
0
0
SPLINE
5
318
100
AcDbEntity
8
0
100
AcDbSpline
70
0
71
3
72
9
73
5
74
0
42
0.000000001
43
0.0000000001
44
0.0000000001
40
0
40
0
40
0
40
0
40
0.029642759958300534
40
0.062970515945596384
40
0.062970515945596384
40
0.062970515945596384
40
0.062970515945596384
10
-23.618415317535415
20
-10.071708306968208
30
0
10
-23.687321721941402
20
-9.9994852860234591
30
0
10
-23.833700528891384
20
-9.8460609456975909
30
0
10
-23.909409874907482
20
-9.6476402029103436
30
0
10
-23.949479780197159
20
-9.5426241013407669
30
0
0
SPLINE
5
319
100
AcDbEntity
8
0
100
AcDbSpline
70
0
71
3
72
9
73
5
74
0
42
0.000000001
43
0.0000000001
44
0.0000000001
40
0
40
0
40
0
40
0
40
0.029510289323758016
40
0.059155713718369252
40
0.059155713718369252
40
0.059155713718369252
40
0.059155713718369252
10
-23.949479780197159
20
-9.5426241013407669
30
0
10
-23.977455178606458
20
-9.4478836522378877
30
0
10
-24.033534081842607
20
-9.257968913578658
30
0
10
-24.041435726832169
20
-9.060100697533386
30
0
10
-24.045395574569717
20
-8.9609405848383865
30
0
0
LINE
5
320
100
AcDbEntity
8
0
100
AcDbLine
10
-24.045395574569714
20
-8.9609405848383865
30
0
11
-24.045395574569717
21
-8.6824754330515823
31
0
0
LINE
5
321
100
AcDbEntity
8
0
100
AcDbLine
10
-24.045395574569717
20
-8.6824754330515823
30
0
11
-25.954431018829361
21
-8.6824754330515823
31
0
0
LWPOLYLINE
5
322
100
AcDbEntity
8
0
100
AcDbPolyline
90
4
70
1
43
0.0
10
-25.954431018829361
20
-5.8019057366251907
10
-25.954431018829361
20
-4.7623017880320511
10
-24.914827070236221
20
-4.7623017880320502
10
-24.914827070236221
20
-5.8019057366251907
0
LWPOLYLINE
5
323
100
AcDbEntity
8
0
100
AcDbPolyline
90
12
70
1
43
0.0
10
-13.281163296699535
20
-29.793240174949162
10
-11.381411275863659
20
-30.801903352439396
10
-9.543539903163925
20
-29.88915596932172
10
-9.543539903163925
20
-30.656482324302189
10
-10.880173466205612
20
-31.244353398978703
10
-9.543539903163925
20
-31.832224473655216
10
-9.5435399031639232
20
-32.580987558066838
10
-11.381411275863659
20
-31.662050828635685
10
-13.281163296699535
20
-32.664527043998234
10
-13.281163296699535
20
-31.853884801566593
10
-11.90740140438081
20
-31.219600782096379
10
-13.281163296699535
20
-30.610071763694279
0
LWPOLYLINE
5
324
100
AcDbEntity
8
0
100
AcDbPolyline
90
11
70
1
43
0.0
10
-12.167302093505874
20
-23.462797746360295
10
-11.514455995559707
20
-23.462797746360295
10
-8.1171784019470365
20
-25.059331998527043
10
-8.1171784019470365
20
-25.882352933585636
10
-11.52683230400087
20
-25.882352933585636
10
-11.52683230400087
20
-26.37740288704633
10
-12.167302093505874
20
-26.37740288704633
10
-12.167302093505874
20
-25.882352933585636
10
-13.281163296699539
20
-25.882352933585636
10
-13.281163296699539
20
-25.198566064536564
10
-12.167302093505874
20
-25.198566064536564
0
LINE
5
325
100
AcDbEntity
8
0
100
AcDbLine
10
-9.543539903163925
20
-14.907722816169258
30
0
11
-8.7452724790573271
21
-14.907722816169258
31
0
0
LINE
5
326
100
AcDbEntity
8
0
100
AcDbLine
10
-8.7452724790573271
20
-14.907722816169258
30
0
11
-8.3770793890953215
21
-15.628638610541817
31
0
0
LINE
5
327
100
AcDbEntity
8
0
100
AcDbLine
10
-8.3770793890953215
20
-15.628638610541817
30
0
11
-9.543539903163925
21
-15.628638610541817
31
0
0
LINE
5
328
100
AcDbEntity
8
0
100
AcDbLine
10
-9.543539903163925
20
-15.628638610541817
30
0
11
-9.543539903163925
21
-16.433093890845772
31
0
0
LINE
5
329
100
AcDbEntity
8
0
100
AcDbLine
10
-9.543539903163925
20
-16.433093890845772
30
0
11
-10.106658658981338
21
-16.433093890845772
31
0
0
LINE
5
330
100
AcDbEntity
8
0
100
AcDbLine
10
-10.106658658981338
20
-16.433093890845772
30
0
11
-10.106658658981338
21
-15.628638610541817
31
0
0
LINE
5
331
100
AcDbEntity
8
0
100
AcDbLine
10
-10.106658658981338
20
-15.628638610541817
30
0
11
-12.312723121643081
21
-15.628638610541817
31
0
0
SPLINE
5
332
100
AcDbEntity
8
0
100
AcDbSpline
70
0
71
3
72
9
73
5
74
0
42
0.000000001
43
0.0000000001
44
0.0000000001
40
0
40
0
40
0
40
0
40
0.021283035362601233
40
0.032691818954695716
40
0.032691818954695716
40
0.032691818954695716
40
0.032691818954695716
10
-12.312723121643083
20
-15.628638610541817
30
0
10
-12.384006499493731
20
-15.627487118327432
30
0
10
-12.493501373860552
20
-15.625718368035988
30
0
10
-12.600321401110527
20
-15.648526369413588
30
0
10
-12.637599430084245
20
-15.656485900580879
30
0
0
SPLINE
5
333
100
AcDbEntity
8
0
100
AcDbSpline
70
0
71
3
72
9
73
5
74
0
42
0.000000001
43
0.0000000001
44
0.0000000001
40
0
40
0
40
0
40
0
40
0.011696135419132513
40
0.022958688792262351
40
0.022958688792262351
40
0.022958688792262351
40
0.022958688792262351
10
-12.637599430084245
20
-15.656485900580879
30
0
10
-12.67369274859027
20
-15.676700472831032
30
0
10
-12.74454138682545
20
-15.716380252239254
30
0
10
-12.755825713226105
20
-15.79659248238629
30
0
10
-12.761361322402971
20
-15.835941180884834
30
0
0
SPLINE
5
334
100
AcDbEntity
8
0
100
AcDbSpline
70
0
71
3
72
9
73
5
74
0
42
0.000000001
43
0.0000000001
44
0.0000000001
40
0
40
0
40
0
40
0
40
0.017729941449015081
40
0.039805575772636048
40
0.039805575772636048
40
0.039805575772636048
40
0.039805575772636048
10
-12.761361322402971
20
-15.835941180884834
30
0
10
-12.751985431094948
20
-15.895314596305912
30
0
10
-12.730935572979472
20
-16.028614133319056
30
0
10
-12.64502260083086
20
-16.133557878010379
30
0
10
-12.597376427650469
20
-16.191758260428902
30
0
0
LINE
5
335
100
AcDbEntity
8
0
100
AcDbLine
10
-12.597376427650469
20
-16.191758260428898
30
0
11
-13.092425785064714
21
-16.402154311835762
31
0
0
SPLINE
5
336
100
AcDbEntity
8
0
100
AcDbSpline
70
0
71
3
72
9
73
5
74
0
42
0.000000001
43
0.0000000001
44
0.0000000001
40
0
40
0
40
0
40
0
40
0.039388520222654023
40
0.0790460301258544
40
0.0790460301258544
40
0.0790460301258544
40
0.0790460301258544
10
-13.092425785064714
20
-16.402154311835762
30
0
10
-13.177254438432364
20
-16.297750786173314
30
0
10
-13.347491051834727
20
-16.088230748657079
30
0
10
-13.371315220686633
20
-15.819270001886096
30
0
10
-13.383267841339128
20
-15.684331998527046
30
0
0
SPLINE
5
337
100
AcDbEntity
8
0
100
AcDbSpline
70
0
71
3
72
9
73
5
74
0
42
0.000000001
43
0.0000000001
44
0.0000000001
40
0
40
0
40
0
40
0
40
0.040792940910228233
40
0.079299386869780053
40
0.079299386869780053
40
0.079299386869780053
40
0.079299386869780053
10
-13.383267841339128
20
-15.684331998527046
30
0
10
-13.369887958847562
20
-15.542305145472268
30
0
10
-13.34387815287878
20
-15.266212220692129
30
0
10
-13.124631170494784
20
-15.0977953253186
30
0
10
-13.018168530464189
20
-15.016014918982979
30
0
0
SPLINE
5
338
100
AcDbEntity
8
0
100
AcDbSpline
70
0
71
3
72
9
73
5
74
0
42
0.000000001
43
0.0000000001
44
0.0000000001
40
0
40
0
40
0
40
0
40
0.026639593556066203
40
0.063866857775038616
40
0.063866857775038616
40
0.063866857775038616
40
0.063866857775038616
10
-13.018168530464189
20
-15.016014918982979
30
0
10
-12.934430137883348
20
-14.984642732376543
30
0
10
-12.73367226978694
20
-14.909429761282665
30
0
10
-12.5185568559305
20
-14.908351387796282
30
0
10
-12.393168530464189
20
-14.907722816169258
30
0
0
LINE
5
339
100
AcDbEntity
8
0
100
AcDbLine
10
-12.393168530464189
20
-14.907722816169258
30
0
11
-10.10665865898134
21
-14.907722816169258
31
0
0
LINE
5
340
100
AcDbEntity
8
0
100
AcDbLine
10
-10.10665865898134
20
-14.907722816169258
30
0
11
-10.106658658981338
21
-14.236312255561348
31
0
0
LINE
5
341
100
AcDbEntity
8
0
100
AcDbLine
10
-10.106658658981338
20
-14.236312255561348
30
0
11
-9.5435399031639268
21
-14.236312255561348
31
0
0
LINE
5
342
100
AcDbEntity
8
0
100
AcDbLine
10
-9.5435399031639268
20
-14.236312255561348
30
0
11
-9.543539903163925
21
-14.907722816169258
31
0
0
SPLINE
5
343
100
AcDbEntity
8
0
100
AcDbSpline
70
0
71
3
72
9
73
5
74
0
42
0.000000001
43
0.0000000001
44
0.0000000001
40
0
40
0
40
0
40
0
40
0.076730531447764108
40
0.16063853748479962
40
0.16063853748479962
40
0.16063853748479962
40
0.16063853748479962
10
-13.395643553733843
20
-9.0661386105418167
30
0
10
-13.359226824711952
20
-8.8042460041263162
30
0
10
-13.282986898053304
20
-8.2559630132635693
30
0
10
-12.865139998937934
20
-7.8898170984754117
30
0
10
-12.646881661415117
20
-7.6985642763972244
30
0
0
LINE
5
344
100
AcDbEntity
8
0
100
AcDbLine
10
-12.646881661415117
20
-7.6985642763972244
30
0
11
-12.096138916015642
21
-8.0791333767771683
31
0
0
SPLINE
5
345
100
AcDbEntity
8
0
100
AcDbSpline
70
0
71
3
72
9
73
5
74
0
42
0.000000001
43
0.0000000001
44
0.0000000001
40
0
40
0
40
0
40
0
40
0.066564774082061726
40
0.11909052733442974
40
0.11909052733442974
40
0.11909052733442974
40
0.11909052733442974
10
-12.096138916015642
20
-8.0791333767771683
30
0
10
-12.278508351603431
20
-8.2205365853555605
30
0
10
-12.604784111618144
20
-8.4735199824842091
30
0
10
-12.687673859838014
20
-8.8740232932143037
30
0
10
-12.724232993125932
20
-9.0506682249903641
30
0
0
SPLINE
5
346
100
AcDbEntity
8
0
100
AcDbSpline
70
0
71
3
72
9
73
5
74
0
42
0.000000001
43
0.0000000001
44
0.0000000001
40
0
40
0
40
0
40
0
40
0.022636416356022922
40
0.046245694354393574
40
0.046245694354393574
40
0.046245694354393574
40
0.046245694354393574
10
-12.724232993125932
20
-9.0506682249903641
30
0
10
-12.71558820933468
20
-9.1278159879996181
30
0
10
-12.697927108624999
20
-9.2854271492425511
30
0
10
-12.58834505786395
20
-9.4003922300040426
30
0
10
-12.532401404380815
20
-9.4590840193629226
30
0
0
SPLINE
5
347
100
AcDbEntity
8
0
100
AcDbSpline
70
0
71
3
72
9
73
5
74
0
42
0.000000001
43
0.0000000001
44
0.0000000001
40
0
40
0
40
0
40
0
40
0.024734394296914906
40
0.058731904679662425
40
0.058731904679662425
40
0.058731904679662425
40
0.058731904679662425
10
-12.532401404380815
20
-9.4590840193629226
30
0
10
-12.460081037665585
20
-9.5012381050878822
30
0
10
-12.28835607713777
20
-9.6013331272233344
30
0
10
-12.088224472275266
20
-9.6033421220953805
30
0
10
-11.972376427650469
20
-9.6045050475001297
30
0
0
SPLINE
5
348
100
AcDbEntity
8
0
100
AcDbSpline
70
0
71
3
72
9
73
5
74
0
42
0.000000001
43
0.0000000001
44
0.0000000001
40
0
40
0
40
0
40
0
40
0.034832720946781089
40
0.066352854668420169
40
0.066352854668420169
40
0.066352854668420169
40
0.066352854668420169
10
-11.972376427650469
20
-9.6045050475001297
30
0
10
-11.853773325720205
20
-9.5975257825951452
30
0
10
-11.62784626140542
20
-9.5842309799686003
30
0
10
-11.443995008189267
20
-9.4532404234823773
30
0
10
-11.35665865898134
20
-9.3910149189829788
30
0
0
SPLINE
5
349
100
AcDbEntity
8
0
100
AcDbSpline
70
0
71
3
72
9
73
5
74
0
42
0.000000001
43
0.0000000001
44
0.0000000001
40
0
40
0
40
0
40
0
40
0.025122574088209244
40
0.061834238113651158
40
0.061834238113651158
40
0.061834238113651158
40
0.061834238113651158
10
-11.35665865898134
20
-9.3910149189829788
30
0
10
-11.298387922819181
20
-9.3307321952969033
30
0
10
-11.154966052024516
20
-9.182358215884749
30
0
10
-11.034961353364523
20
-9.0143046624350891
30
0
10
-10.963713250160234
20
-8.9145294281840286
30
0
0
LINE
5
350
100
AcDbEntity
8
0
100
AcDbLine
10
-10.963713250160236
20
-8.9145294281840286
30
0
11
-10.849232993125932
21
-8.7567326876521072
31
0
0
SPLINE
5
351
100
AcDbEntity
8
0
100
AcDbSpline
70
0
71
3
72
9
73
5
74
0
42
0.000000001
43
0.0000000001
44
0.0000000001
40
0
40
0
40
0
40
0
40
0.04553169872340803
40
0.080380265640104323
40
0.080380265640104323
40
0.080380265640104323
40
0.080380265640104323
10
-10.849232993125932
20
-8.7567326876521072
30
0
10
-10.758636473546959
20
-8.6340562382865436
30
0
10
-10.598700154147505
20
-8.4174869939082413
30
0
10
-10.391441043725465
20
-8.246211117058186
30
0
10
-10.301584622859972
20
-8.1719550940394363
30
0
0
SPLINE
5
352
100
AcDbEntity
8
0
100
AcDbSpline
70
0
71
3
72
9
73
5
74
0
42
0.000000001
43
0.0000000001
44
0.0000000001
40
0
40
0
40
0
40
0
40
0.052443001681274942
40
0.10127457959924058
40
0.10127457959924058
40
0.10127457959924058
40
0.10127457959924058
10
-10.301584622859972
20
-8.1719550940394363
30
0
10
-10.149869926923936
20
-8.0799415774290591
30
0
10
-9.8568881837481914
20
-7.9022509435328896
30
0
10
-9.5160502079145353
20
-7.8712896352061374
30
0
10
-9.3517083144188096
20
-7.8563610169291458
30
0
0
SPLINE
5
353
100
AcDbEntity
8
0
100
AcDbSpline
70
0
71
3
72
9
73
5
74
0
42
0.000000001
43
0.0000000001
44
0.0000000001
40
0
40
0
40
0
40
0
40
0.050258482368833152
40
0.097097760157735746
40
0.097097760157735746
40
0.097097760157735746
40
0.097097760157735746
10
-9.3517083144188096
20
-7.8563610169291458
30
0
10
-9.1809976781582385
20
-7.8673374743727509
30
0
10
-8.8511902579030988
20
-7.888543634646739
30
0
10
-8.5793680090335513
20
-8.0755547073665408
30
0
10
-8.4482428646087815
20
-8.165767535865303
30
0
0
SPLINE
5
354
100
AcDbEntity
8
0
100
AcDbSpline
70
0
71
3
72
9
73
5
74
0
42
0.000000001
43
0.0000000001
44
0.0000000001
40
0
40
0
40
0
40
0
40
0.051331784045004061
40
0.10494227885763965
40
0.10494227885763965
40
0.10494227885763965
40
0.10494227885763965
10
-8.4482428646087815
20
-8.165767535865303
30
0
10
-8.3273326570462505
20
-8.2941437124951989
30
0
10
-8.080144819046355
20
-8.5565949165048032
30
0
10
-8.0493636770240471
20
-8.9163761243063551
30
0
10
-8.0336389160156401
20
-9.1001728627085647
30
0
0
SPLINE
5
355
100
AcDbEntity
8
0
100
AcDbSpline
70
0
71
3
72
9
73
5
74
0
42
0.000000001
43
0.0000000001
44
0.0000000001
40
0
40
0
40
0
40
0
40
0.06202025408903962
40
0.12798983314222562
40
0.12798983314222562
40
0.12798983314222562
40
0.12798983314222562
10
-8.0336389160156401
20
-9.1001728627085647
30
0
10
-8.0578505219668948
20
-9.31088817731486
30
0
10
-8.1078154802103342
20
-9.7457367336953702
30
0
10
-8.4018745373980952
20
-10.071090663614557
30
0
10
-8.5534408903122099
20
-10.238787278831001
30
0
0
LINE
5
356
100
AcDbEntity
8
0
100
AcDbLine
10
-8.5534408903122099
20
-10.238787278830998
30
0
11
-9.0918073272705229
21
-9.8582175824046097
31
0
0
SPLINE
5
357
100
AcDbEntity
8
0
100
AcDbSpline
70
0
71
3
72
9
73
5
74
0
42
0.000000001
43
0.0000000001
44
0.0000000001
40
0
40
0
40
0
40
0
40
0.022457274752889018
40
0.04043774632352911
40
0.04043774632352911
40
0.04043774632352911
40
0.04043774632352911
10
-9.0918073272705229
20
-9.8582175824046097
30
0
10
-9.0307073378827472
20
-9.8142386158201571
30
0
10
-8.9206874936042073
20
-9.7350477828325417
30
0
10
-8.8356730845952089
20
-9.629692351348119
30
0
10
-8.797871789932266
20
-9.582846507728096
30
0
0
SPLINE
5
358
100
AcDbEntity
8
0
100
AcDbSpline
70
0
71
3
72
9
73
5
74
0
42
0.000000001
43
0.0000000001
44
0.0000000001
40
0
40
0
40
0
40
0
40
0.021959653841388212
40
0.04596456578220301
40
0.04596456578220301
40
0.04596456578220301
40
0.04596456578220301
10
-8.797871789932266
20
-9.582846507728096
30
0
10
-8.7635977760830013
20
-9.5171486814258976
30
0
10
-8.6918575667166049
20
-9.3796341249293995
30
0
10
-8.684263462879704
20
-9.2245055578462107
30
0
10
-8.6802974557876755
20
-9.1434899422526321
30
0
0
SPLINE
5
359
100
AcDbEntity
8
0
100
AcDbSpline
70
0
71
3
72
9
73
5
74
0
42
0.000000001
43
0.0000000001
44
0.0000000001
40
0
40
0
40
0
40
0
40
0.024333117431005993
40
0.047389598558028143
40
0.047389598558028143
40
0.047389598558028143
40
0.047389598558028143
10
-8.6802974557876755
20
-9.1434899422526321
30
0
10
-8.6876222759740678
20
-9.0596159636698701
30
0
10
-8.7018876198671045
20
-8.8962684523708457
30
0
10
-8.8205731017926006
20
-8.7836690350654418
30
0
10
-8.8783171987533738
20
-8.7288859936594925
30
0
0
SPLINE
5
360
100
AcDbEntity
8
0
100
AcDbSpline
70
0
71
3
72
9
73
5
74
0
42
0.000000001
43
0.0000000001
44
0.0000000001
40
0
40
0
40
0
40
0
40
0.023386259804831711
40
0.049598259731115139
40
0.049598259731115139
40
0.049598259731115139
40
0.049598259731115139
10
-8.8783171987533738
20
-8.7288859936594925
30
0
10
-8.9467606662223087
20
-8.689213755646076
30
0
10
-9.0919175619701704
20
-8.6050757198282497
30
0
10
-9.2598593212133409
20
-8.5970098816767511
30
0
10
-9.348614237308519
20
-8.592747196853157
30
0
0
SPLINE
5
361
100
AcDbEntity
8
0
100
AcDbSpline
70
0
71
3
72
9
73
5
74
0
42
0.000000001
43
0.0000000001
44
0.0000000001
40
0
40
0
40
0
40
0
40
0.028434742966841443
40
0.057771774552450937
40
0.057771774552450937
40
0.057771774552450937
40
0.057771774552450937
10
-9.348614237308519
20
-8.592747196853157
30
0
10
-9.444516979509487
20
-8.6006808043849876
30
0
10
-9.6393656408058845
20
-8.6167997679448511
30
0
10
-9.8056392202403302
20
-8.7198654063589807
30
0
10
-9.8900744533538987
20
-8.7722030732035599
30
0
0
SPLINE
5
362
100
AcDbEntity
8
0
100
AcDbSpline
70
0
71
3
72
9
73
5
74
0
42
0.000000001
43
0.0000000001
44
0.0000000001
40
0
40
0
40
0
40
0
40
0.021507198197481307
40
0.055507107894784552
40
0.055507107894784552
40
0.055507107894784552
40
0.055507107894784552
10
-9.8900744533538987
20
-8.7722030732035599
30
0
10
-9.943676920390228
20
-8.8200030981357518
30
0
10
-10.082017484042103
20
-8.9433683601713874
30
0
10
-10.195155178415014
20
-9.0904974888909091
30
0
10
-10.264455697536485
20
-9.1806188675761184
30
0
0
LINE
5
363
100
AcDbEntity
8
0
100
AcDbLine
10
-10.264455697536487
20
-9.1806188675761184
30
0
11
-10.443911275863664
21
-9.409579381644722
31
0
0
LINE
5
364
100
AcDbEntity
8
0
100
AcDbLine
10
-10.443911275863664
20
-9.409579381644722
30
0
11
-10.490322134494798
21
-9.4683662506937942
31
0
0
SPLINE
5
365
100
AcDbEntity
8
0
100
AcDbSpline
70
0
71
3
72
9
73
5
74
0
42
0.000000001
43
0.0000000001
44
0.0000000001
40
0
40
0
40
0
40
0
40
0.050709566489010732
40
0.086841193335598754
40
0.086841193335598754
40
0.086841193335598754
40
0.086841193335598754
10
-10.490322134494798
20
-9.4683662506937942
30
0
10
-10.595219568141804
20
-9.6015392873198468
30
0
10
-10.774858617466389
20
-9.829600898204216
30
0
10
-10.993437801876143
20
-10.020237208188068
30
0
10
-11.084381065368669
20
-10.099554404914375
30
0
0
SPLINE
5
366
100
AcDbEntity
8
0
100
AcDbSpline
70
0
71
3
72
9
73
5
74
0
42
0.000000001
43
0.0000000001
44
0.0000000001
40
0
40
0
40
0
40
0
40
0.045871695715166284
40
0.092801833307505105
40
0.092801833307505105
40
0.092801833307505105
40
0.092801833307505105
10
-11.084381065368669
20
-10.099554404914375
30
0
10
-11.216793809299405
20
-10.180770348979207
30
0
10
-11.484674584109893
20
-10.34507621091673
30
0
10
-11.798303202991097
20
-10.366955261676496
30
0
10
-11.956906042099016
20
-10.378019556701179
30
0
0
SPLINE
5
367
100
AcDbEntity
8
0
100
AcDbSpline
70
0
71
3
72
9
73
5
74
0
42
0.000000001
43
0.0000000001
44
0.0000000001
40
0
40
0
40
0
40
0
40
0.055638973262159837
40
0.10444984236589888
40
0.10444984236589888
40
0.10444984236589888
40
0.10444984236589888
10
-11.956906042099016
20
-10.378019556701179
30
0
10
-12.145637033537371
20
-10.369310927568007
30
0
10
-12.499937646030933
20
-10.352962406255493
30
0
10
-12.802513402113282
20
-10.169717105765743
30
0
10
-12.943911275863664
20
-10.084084019362923
30
0
0
SPLINE
5
368
100
AcDbEntity
8
0
100
AcDbSpline
70
0
71
3
72
9
73
5
74
0
42
0.000000001
43
0.0000000001
44
0.0000000001
40
0
40
0
40
0
40
0
40
0.054810127329306721
40
0.11459617997617702
40
0.11459617997617702
40
0.11459617997617702
40
0.11459617997617702
10
-12.943911275863664
20
-10.084084019362923
30
0
10
-13.075598574301095
20
-9.9490282773683028
30
0
10
-13.350928373512186
20
-9.6666557876376284
30
0
10
-13.380313183898371
20
-9.272022839830294
30
0
10
-13.395643553733843
20
-9.0661386105418167
30
0
0
LINE
5
369
100
AcDbEntity
8
0
100
AcDbLine
10
-8.1171784019470383
20
-3.193613931834693
30
0
11
-13.281163296699541
21
-3.193613931834693
31
0
0
LINE
5
370
100
AcDbEntity
8
0
100
AcDbLine
10
-13.281163296699541
20
-3.193613931834693
30
0
11
-13.281163296699541
21
-2.4788861426711035
31
0
0
LINE
5
371
100
AcDbEntity
8
0
100
AcDbLine
10
-13.281163296699541
20
-2.4788861426711035
30
0
11
-8.9463862991333176
21
-2.4788861426711035
31
0
0
SPLINE
5
372
100
AcDbEntity
8
0
100
AcDbSpline
70
0
71
3
72
9
73
5
74
0
42
0.000000001
43
0.0000000001
44
0.0000000001
40
0
40
0
40
0
40
0
40
0.033520436626405796
40
0.078452662623401254
40
0.078452662623401254
40
0.078452662623401254
40
0.078452662623401254
10
-8.9463862991333176
20
-2.4788861426711035
30
0
10
-8.9991462788828578
20
-2.3801813387706572
30
0
10
-9.1226279905753405
20
-2.149168396844638
30
0
10
-9.2053315811885756
20
-1.9004302028092219
30
0
10
-9.2526984429359604
20
-1.757970273792739
30
0
0
LINE
5
373
100
AcDbEntity
8
0
100
AcDbLine
10
-9.2526984429359604
20
-1.7579702737927385
30
0
11
-8.6679211473465134
21
-1.631113857328887
31
0
0
SPLINE
5
374
100
AcDbEntity
8
0
100
AcDbSpline
70
0
71
3
72
9
73
5
74
0
42
0.000000001
43
0.0000000001
44
0.0000000001
40
0
40
0
40
0
40
0
40
0.059528739305688076
40
0.11882585949510317
40
0.11882585949510317
40
0.11882585949510317
40
0.11882585949510317
10
-8.6679211473465134
20
-1.631113857328887
30
0
10
-8.5963580373498818
20
-1.8169877057309123
30
0
10
-8.453510260752001
20
-2.1880121898983895
30
0
10
-8.2291432404558602
20
-2.5162172877098641
30
0
10
-8.1171784019470383
20
-2.6799999627470923
30
0
0
LINE
5
375
100
AcDbEntity
8
0
100
AcDbLine
10
-8.1171784019470401
20
-2.6799999627470923
30
0
11
-8.1171784019470383
21
-3.193613931834693
31
0
0
LINE
5
376
100
AcDbEntity
8
0
100
AcDbLine
10
-9.9364853119850309
20
-24.855124101340763
30
0
11
-11.52683230400087
21
-24.097079381644718
31
0
0
LINE
5
377
100
AcDbEntity
8
0
100
AcDbLine
10
-11.52683230400087
20
-24.097079381644718
30
0
11
-11.52683230400087
21
-25.229505643546574
31
0
0
LINE
5
378
100
AcDbEntity
8
0
100
AcDbLine
10
-11.52683230400087
20
-25.229505643546574
30
0
11
-10.366559646129623
21
-25.229505643546574
31
0
0
SPLINE
5
379
100
AcDbEntity
8
0
100
AcDbSpline
70
0
71
3
72
9
73
5
74
0
42
0.000000001
43
0.0000000001
44
0.0000000001
40
0
40
0
40
0
40
0
40
0.067693849059779349
40
0.15262964357322972
40
0.15262964357322972
40
0.15262964357322972
40
0.15262964357322972
10
-10.366559646129623
20
-25.229505643546574
30
0
10
-10.140911728472123
20
-25.232358521791006
30
0
10
-9.6321422948609285
20
-25.238790919943185
30
0
10
-9.1239748133193377
20
-25.26463120128653
30
0
10
-8.8411882734298857
20
-25.279010877311222
30
0
0
LINE
5
380
100
AcDbEntity
8
0
100
AcDbLine
10
-8.8411882734298857
20
-25.279010877311229
30
0
11
-8.8411882734298857
21
-25.254258260428898
31
0
0
LINE
5
381
100
AcDbEntity
8
0
100
AcDbLine
10
-8.8411882734298857
20
-25.254258260428898
30
0
11
-8.9278221344947966
21
-25.226410970389836
31
0
0
SPLINE
5
382
100
AcDbEntity
8
0
100
AcDbSpline
70
0
71
3
72
9
73
5
74
0
42
0.000000001
43
0.0000000001
44
0.0000000001
40
0
40
0
40
0
40
0
40
0.062717852029335885
40
0.10753475772888818
40
0.10753475772888818
40
0.10753475772888818
40
0.10753475772888818
10
-8.9278221344947966
20
-25.226410970389836
30
0
10
-9.1271884198593369
20
-25.162972930768653
30
0
10
-9.4690178113690529
20
-25.054203353993781
30
0
10
-9.7989715729075968
20
-24.913686744452818
30
0
10
-9.9364853119850309
20
-24.855124101340763
30
0
0
SPLINE
5
383
100
AcDbEntity
8
0
100
AcDbSpline
70
0
71
3
72
9
73
5
74
0
42
0.000000001
43
0.0000000001
44
0.0000000001
40
0
40
0
40
0
40
0
40
0.033076937535011716
40
0.074342465974282818
40
0.074342465974282818
40
0.074342465974282818
40
0.074342465974282818
10
-10.261361918449419
20
-11.925049171149727
30
0
10
-10.364064472604465
20
-11.883148110113869
30
0
10
-10.594894824708906
20
-11.788972879984188
30
0
10
-10.844003504546242
20
-11.771025689267478
30
0
10
-10.98227711677553
20
-11.761063680350777
30
0
0
LINE
5
384
100
AcDbEntity
8
0
100
AcDbLine
10
-10.982277116775528
20
-11.761063680350777
30
0
11
-10.98227711677553
21
-12.667624101340767
31
0
0
SPLINE
5
385
100
AcDbEntity
8
0
100
AcDbSpline
70
0
71
3
72
9
73
5
74
0
42
0.000000001
43
0.0000000001
44
0.0000000001
40
0
40
0
40
0
40
0
40
0.041403256369238028
40
0.073618687477224026
40
0.073618687477224026
40
0.073618687477224026
40
0.073618687477224026
10
-10.98227711677553
20
-12.667624101340767
30
0
10
-10.843435228067248
20
-12.66015407220624
30
0
10
-10.596561950216653
20
-12.646871693269766
30
0
10
-10.365547558902666
20
-12.560151642103266
30
0
10
-10.264455995559709
20
-12.52220307320356
30
0
0
SPLINE
5
386
100
AcDbEntity
8
0
100
AcDbSpline
70
0
71
3
72
9
73
5
74
0
42
0.000000001
43
0.0000000001
44
0.0000000001
40
0
40
0
40
0
40
0
40
0.022834462121842276
40
0.040624783955170142
40
0.040624783955170142
40
0.040624783955170142
40
0.040624783955170142
10
-10.264455995559709
20
-12.52220307320356
30
0
10
-10.193522276911605
20
-12.484159566156753
30
0
10
-10.067324121691668
20
-12.416476375441476
30
0
10
-10.034430015338032
20
-12.279130800274993
30
0
10
-10.020025095939653
20
-12.218984708487984
30
0
0
SPLINE
5
387
100
AcDbEntity
8
0
100
AcDbSpline
70
0
71
3
72
9
73
5
74
0
42
0.000000001
43
0.0000000001
44
0.0000000001
40
0
40
0
40
0
40
0
40
0.016821607762543465
40
0.039516718955212193
40
0.039516718955212193
40
0.039516718955212193
40
0.039516718955212193
10
-10.020025095939653
20
-12.218984708487984
30
0
10
-10.034898828988899
20
-12.162702747791121
30
0
10
-10.069839670376881
20
-12.03048717990357
30
0
10
-10.191493877185497
20
-11.963513355966569
30
0
10
-10.261361918449419
20
-11.925049171149727
30
0
0
SPLINE
5
388
100
AcDbEntity
8
0
100
AcDbSpline
70
0
71
3
72
9
73
5
74
0
42
0.000000001
43
0.0000000001
44
0.0000000001
40
0
40
0
40
0
40
0
40
0.028944958697249331
40
0.062327337688815057
40
0.062327337688815057
40
0.062327337688815057
40
0.062327337688815057
10
-21.687723121643081
20
-9.5085892531275711
30
0
10
-21.620132148622552
20
-9.4356569788887423
30
0
10
-21.474588137168599
20
-9.2786115143419696
30
0
10
-21.462267069811027
20
-9.0636807176984178
30
0
10
-21.45566793441774
20
-8.9485642763972244
30
0
0
LINE
5
389
100
AcDbEntity
8
0
100
AcDbLine
10
-21.45566793441774
20
-8.9485642763972244
30
0
11
-21.45566793441774
21
-8.6824754330515823
31
0
0
LINE
5
390
100
AcDbEntity
8
0
100
AcDbLine
10
-21.45566793441774
20
-8.6824754330515823
30
0
11
-23.414207420349136
21
-8.6824754330515823
31
0
0
LINE
5
391
100
AcDbEntity
8
0
100
AcDbLine
10
-23.414207420349136
20
-8.6824754330515823
30
0
11
-23.414207420349136
21
-8.9052477928996048
31
0
0
SPLINE
5
392
100
AcDbEntity
8
0
100
AcDbSpline
70
0
71
3
72
9
73
5
74
0
42
0.000000001
43
0.0000000001
44
0.0000000001
40
0
40
0
40
0
40
0
40
0.037110954707359083
40
0.06890649422835271
40
0.06890649422835271
40
0.06890649422835271
40
0.06890649422835271
10
-23.414207420349136
20
-8.9052477928996048
30
0
10
-23.406970292418094
20
-9.033786642468705
30
0
10
-23.393532612952761
20
-9.2724536766583672
30
0
10
-23.225604902920036
20
-9.4403835597707886
30
0
10
-23.148117980957046
20
-9.5178714844584427
30
0
0
SPLINE
5
393
100
AcDbEntity
8
0
100
AcDbSpline
70
0
71
3
72
9
73
5
74
0
42
0.000000001
43
0.0000000001
44
0.0000000001
40
0
40
0
40
0
40
0
40
0.032261506461256535
40
0.077298434103528157
40
0.077298434103528157
40
0.077298434103528157
40
0.077298434103528157
10
-23.148117980957046
20
-9.5178714844584427
30
0
10
-23.049555004541411
20
-9.5635874602224984
30
0
10
-22.813398526645322
20
-9.6731227463170928
30
0
10
-22.551782983489034
20
-9.6747315010233059
30
0
10
-22.399356088638321
20
-9.6756688210368118
30
0
0
SPLINE
5
394
100
AcDbEntity
8
0
100
AcDbSpline
70
0
71
3
72
9
73
5
74
0
42
0.000000001
43
0.0000000001
44
0.0000000001
40
0
40
0
40
0
40
0
40
0.042901847433939121
40
0.074003248932181423
40
0.074003248932181423
40
0.074003248932181423
40
0.074003248932181423
10
-22.399356088638321
20
-9.6756688210368118
30
0
10
-22.253712796747038
20
-9.674411202504281
30
0
10
-22.002486394393863
20
-9.672241881999657
30
0
10
-21.780864375456616
20
-9.5570155225262106
30
0
10
-21.687723121643081
20
-9.5085892531275711
30
0
0
ENDSEC
0
SECTION
2
OBJECTS
0
DICTIONARY
5
C
100
AcDbDictionary
3
ACAD_GROUP
350
D
3
ACAD_MLINESTYLE
350
17
0
DICTIONARY
5
D
100
AcDbDictionary
0
DICTIONARY
5
1A
330
C
100
AcDbDictionary
0
DICTIONARY
5
17
100
AcDbDictionary
0
ENDSEC
0
EOF
