<?xml version="1.0" encoding="UTF-8" standalone="no"?>
<!-- Created with Inkscape (http://www.inkscape.org/) -->

<svg
   width="51.639999mm"
   height="51.099998mm"
   viewBox="0 0 51.64 51.099999"
   version="1.1"
   id="svg5"
   inkscape:version="1.1.1 (3bf5ae0d25, 2021-09-20)"
   sodipodi:docname="レーザー用上カバー.svg"
   xmlns:inkscape="http://www.inkscape.org/namespaces/inkscape"
   xmlns:sodipodi="http://sodipodi.sourceforge.net/DTD/sodipodi-0.dtd"
   xmlns="http://www.w3.org/2000/svg"
   xmlns:svg="http://www.w3.org/2000/svg">
  <sodipodi:namedview
     id="namedview7"
     pagecolor="#505050"
     bordercolor="#eeeeee"
     borderopacity="1"
     inkscape:pageshadow="0"
     inkscape:pageopacity="0"
     inkscape:pagecheckerboard="0"
     inkscape:document-units="mm"
     showgrid="false"
     fit-margin-top="0"
     fit-margin-left="0"
     fit-margin-right="0"
     fit-margin-bottom="0"
     inkscape:zoom="4"
     inkscape:cx="83"
     inkscape:cy="100.5"
     inkscape:window-width="1920"
     inkscape:window-height="1057"
     inkscape:window-x="1072"
     inkscape:window-y="539"
     inkscape:window-maximized="1"
     inkscape:current-layer="g6869" />
  <defs
     id="defs2">
    <marker
       id="DistanceX"
       orient="auto"
       refX="0"
       refY="0"
       style="overflow:visible">
      <path
         d="M 3,-3 -3,3 M 0,-5 V 5"
         style="stroke:#000000;stroke-width:0.5"
         id="path826" />
    </marker>
    <pattern
       id="Hatch"
       patternUnits="userSpaceOnUse"
       width="8"
       height="8"
       x="0"
       y="0">
      <path
         d="M8 4 l-4,4"
         stroke="#000000"
         stroke-width="0.25"
         linecap="square"
         id="path829" />
      <path
         d="M6 2 l-4,4"
         stroke="#000000"
         stroke-width="0.25"
         linecap="square"
         id="path831" />
      <path
         d="M4 0 l-4,4"
         stroke="#000000"
         stroke-width="0.25"
         linecap="square"
         id="path833" />
    </pattern>
    <symbol
       id="*MODEL_SPACE" />
    <symbol
       id="*PAPER_SPACE" />
    <marker
       id="DistanceX-8"
       orient="auto"
       refX="0"
       refY="0"
       style="overflow:visible">
      <path
         d="M 3,-3 -3,3 M 0,-5 V 5"
         style="stroke:#000000;stroke-width:0.5"
         id="path5667" />
    </marker>
    <pattern
       id="Hatch-4"
       patternUnits="userSpaceOnUse"
       width="8"
       height="8"
       x="0"
       y="0">
      <path
         d="M8 4 l-4,4"
         stroke="#000000"
         stroke-width="0.25"
         linecap="square"
         id="path5670" />
      <path
         d="M6 2 l-4,4"
         stroke="#000000"
         stroke-width="0.25"
         linecap="square"
         id="path5672" />
      <path
         d="M4 0 l-4,4"
         stroke="#000000"
         stroke-width="0.25"
         linecap="square"
         id="path5674" />
    </pattern>
    <symbol
       id="*MODEL_SPACE-0" />
    <symbol
       id="*PAPER_SPACE-8" />
  </defs>
  <g
     inkscape:label="Layer 1"
     inkscape:groupmode="layer"
     id="layer1"
     transform="translate(-27.182702,-172.7171)">
    <g
       inkscape:label="0"
       id="g2028"
       transform="matrix(0.26458333,0,0,0.26458333,75.722011,-119.58822)"
       style="stroke:#000000;stroke-width:0.377953;stroke-miterlimit:4;stroke-dasharray:none;stroke-opacity:1">
      <g
         inkscape:label="0"
         id="g6869"
         transform="translate(3.9711078,-9.9956077)">
        <path
           d="m -182.8574,1212.9138 v -22.4677 l 17.8896,11.2248 z"
           style="fill:#000000;stroke:none;fill-opacity:1"
           id="path5681" />
        <path
           d="m -183.30709,1258.5827 v -34.0158 h 4.72441 a 4.72441,4.72441 0 0 0 9.44882,0 h 4.72441 v 34.0158 z"
           style="fill:#000000;stroke:#000000;fill-opacity:1"
           id="path5683" />
        <path
           d="m -187.23779,1300.1575 a 7.559055,7.559055 0 0 0 7.55905,7.559 H 0 a 7.559055,7.559055 0 0 0 7.559055,-7.559 V 1122.5197 A 7.559055,7.559055 0 0 0 0,1114.9606 h -179.67874 a 7.559055,7.559055 0 0 0 -7.55905,7.5591 z"
           style="fill:none;stroke:#ff0000;stroke-opacity:1"
           id="path5685" />
        <path
           d="m -62.642067,1250.434 1.328596,1.8835 -0.849003,6.7463 -6.649401,-1.4216 -1.338219,-1.8902 5.056283,0.8476 -9.517166,-13.4052 1.562044,-1.11 9.536413,13.4185 z"
           style="fill:#000000;stroke:none;fill-opacity:1"
           id="path5687" />
        <path
           d="m -50.196523,1144.4481 v -3.9292 h 3.92921 v 3.9292 z"
           style="fill:#000000;stroke:none;fill-opacity:1"
           id="path5689" />
        <path
           style="fill:#000000;stroke:none;fill-opacity:1"
           d="m -42.9228,1173.15 h -0.7601 v 0 -6.33 l -2e-5,-0 c -0.656081,0.024 -1.312162,0.048 -1.938295,0.2018 -0.501011,0.1229 -0.982846,0.3289 -1.464682,0.535 v 0 c -0.326256,0.2059 -0.652513,0.4118 -0.841974,0.7104 -0.153114,0.2413 -0.216886,0.5431 -0.280658,0.8449 l 0,0 c 0.0378,0.2569 0.0756,0.5139 0.17541,0.7425 0.117813,0.2699 0.322024,0.5004 0.526235,0.7309 v 0 c 0.216831,0.1942 0.433663,0.3883 0.672408,0.5496 0.264655,0.1789 0.556239,0.3175 0.847822,0.4561 l -4.6e-5,-10e-5 -1.7891,1.65 -4.9e-5,-10e-4 c -0.844758,-0.5459 -1.689515,-1.0917 -2.175099,-1.8711 -0.425772,-0.6833 -0.575402,-1.5461 -0.725033,-2.409 v 0 c 0.105014,-0.7256 0.210028,-1.4513 0.549623,-2.0376 0.366988,-0.6337 1.007926,-1.1048 1.648864,-1.5758 v 0 c 0.763806,-0.3644 1.527611,-0.7288 2.330046,-0.9385 0.938319,-0.2452 1.929459,-0.279 2.920598,-0.3128 v 0 c 0.981137,0.027 1.962275,0.055 2.903055,0.269 0.793892,0.1805 1.559045,0.4937 2.324198,0.8069 v 0 c 0.702184,0.4469 1.404367,0.8939 1.806736,1.5348 0.367312,0.5851 0.484779,1.3319 0.602246,2.0786 v 0 c -0.110849,0.7599 -0.221697,1.5198 -0.602246,2.0991 -0.401801,0.6117 -1.104268,1.0221 -1.806736,1.4325 v 0 c -0.708204,0.2414 -1.416408,0.4828 -2.14294,0.6228 -0.907685,0.1747 -1.843976,0.1911 -2.780267,0.2075 z"
           id="path5693"
           sodipodi:nodetypes="ccccccccsccscccccccccccccscccccsccsccccc" />
        <path
           style="fill:#000000;stroke:none;fill-opacity:1"
           d="m -37.5318,1202.65 v -2.58 0 h 6.7358 v 0 9.69 0 h -2.1517 l -5e-5,-4e-4 c -1.303836,-0.4232 -2.607672,-0.8464 -3.926289,-1.2162 -1.64235,-0.4606 -3.307629,-0.8384 -4.972908,-1.2162 v 0 c -1.434005,-0.3109 -2.868009,-0.6219 -4.309271,-0.8946 -1.34257,-0.254 -2.691437,-0.4749 -4.040305,-0.6958 h 2.3e-5 v -2.73 h -2.3e-5 c 2.556981,0.4661 5.113961,0.9322 7.647929,1.4998 3.054965,0.6842 6.076481,1.5159 9.097998,2.3476 l -4e-6,-4.2042"
           id="path5719"
           sodipodi:nodetypes="cccccccccsccsccccccc" />
        <path
           d="m -50.196523,1223.1493 7.180165,3.8123 6.946286,-3.4498 v 2.9002 l -5.051843,2.2218 5.051843,2.2219 v 2.83 l -6.946286,-3.4732 -7.180165,3.7889 v -3.0638 l 5.192171,-2.3973 -5.192171,-2.3037 z"
           style="fill:#000000;stroke:none;fill-opacity:1"
           id="path5739"
           sodipodi:nodetypes="ccccccccccccc" />
        <path
           d="m -81.793933,1127.9244 c 0.438651,0.2032 0.877302,0.4065 1.268808,0.6783 0.359832,0.2498 0.679838,0.5576 0.999844,0.8653 v 0 c 0.364943,0.4787 0.729886,0.9574 0.938447,1.4969 0.204908,0.53 0.258864,1.1186 0.31282,1.7073 l 0,0 c -0.06603,0.7286 -0.132051,1.4573 -0.432677,2.0728 -0.288572,0.5908 -0.79331,1.0774 -1.298048,1.5641 h 0 c -0.502749,0.3068 -1.005498,0.6136 -1.549467,0.7893 -0.596488,0.1928 -1.242539,0.2279 -1.888591,0.2631 v 0 c -0.650937,-0.036 -1.301875,-0.073 -1.914907,-0.2455 -0.581098,-0.1639 -1.128137,-0.4503 -1.675176,-0.7368 h 0 c -0.257124,-0.1887 -0.514247,-0.3774 -0.765966,-0.573 -0.466495,-0.3624 -0.914428,-0.7484 -1.36236,-1.1343 v 0 c -0.08372,-0.069 -0.167442,-0.1386 -0.251424,-0.2076 -0.11079,-0.091 -0.222035,-0.1814 -0.333279,-0.2719 l 9e-6,-0 -0.69,-0.57 3.8e-5,-6e-4 c -0.495028,-0.3916 -0.990055,-0.7832 -1.517306,-1.1255 -0.463809,-0.3012 -0.952554,-0.5643 -1.441298,-0.8274 h 0 c -0.380087,-0.1818 -0.760174,-0.3637 -1.160634,-0.4794 -0.273356,-0.079 -0.556205,-0.1273 -0.839055,-0.1755 l -4.5e-5,-0 v 6.47 0 h -2.7013 v 0 -9.26 0 h 2.5376 l 3.2e-5,-0 c 0.607777,0.1424 1.215555,0.2849 1.797966,0.497 0.591422,0.2153 1.156687,0.5023 1.721953,0.7893 v 0 c 0.505183,0.3178 1.010367,0.6355 1.496842,0.9794 0.637291,0.4505 1.242477,0.9459 1.847662,1.4413 l 4.5e-5,-0 0.5496,0.46 -2.2e-5,-1e-4 c 0.439344,0.3618 0.878689,0.7236 1.341896,1.0524 0.298418,0.2119 0.606741,0.41 0.915063,0.6081 l 0,0 c 0.339299,0.1464 0.678598,0.2928 1.032001,0.3771 0.41852,0.1 0.85682,0.1129 1.295119,0.1258 h 0 c 0.325444,-0.01 0.650887,-0.018 0.96476,-0.085 0.268774,-0.057 0.529064,-0.1556 0.789354,-0.2544 v 2e-4 c 0.317164,-0.1968 0.634329,-0.3936 0.815662,-0.6782 0.174225,-0.2735 0.223058,-0.6279 0.271892,-0.9823 v 0 c -0.03441,-0.3159 -0.06882,-0.6318 -0.190026,-0.9092 -0.126751,-0.2902 -0.348422,-0.5383 -0.570092,-0.7865 v 0 c -0.2419,-0.1922 -0.4838,-0.3844 -0.742573,-0.5496 -0.33403,-0.2132 -0.696173,-0.3814 -1.058317,-0.5496 l -1.7e-5,0 1.4852,-1.83 z"
           style="fill:#000000;stroke:none;fill-opacity:1"
           id="path5767"
           sodipodi:nodetypes="csccsccscccccccccccscccccccccccccccccccccscccccccccccccccccccccccc" />
        <path
           style="fill:#000000;stroke:none;fill-opacity:1"
           d="m -89.6874,1274.8 h -8.4081 v 0 -2.68 0 h 20.4764 v 0 2.68 0 h -8.1859 l -6e-6,0 c 0.221496,0.092 0.442992,0.1838 0.643172,0.3099 0.187938,0.1183 0.357088,0.2667 0.526239,0.4151 v 0 c 0.272766,0.3073 0.545532,0.6146 0.70164,0.9735 0.145827,0.3354 0.189855,0.7159 0.233883,1.0964 h 0 c -0.05408,0.4561 -0.108159,0.9122 -0.2982,1.3009 -0.198905,0.4069 -0.54675,0.7399 -0.894595,1.073 v 0 c -0.569365,0.2946 -1.13873,0.5892 -1.739493,0.763 -0.848018,0.2453 -1.758597,0.2498 -2.669176,0.2543 l 3.6e-5,0 h -8.794 v 0 -2.68 0 h 8.7706 l -2.5e-5,3e-4 c 0.873393,0.063 1.746786,0.1261 2.350509,-0.307 0.307942,-0.2209 0.545724,-0.5709 0.783506,-0.9209 h 0 c -0.05874,-0.2309 -0.117479,-0.4618 -0.233879,-0.6548 -0.160656,-0.2665 -0.431152,-0.4607 -0.701649,-0.6549 h 0 c -0.368024,-0.2104 -0.736048,-0.4208 -1.125553,-0.5759 -0.458628,-0.1827 -0.947039,-0.2887 -1.43545,-0.3947 z"
           id="path5817"
           sodipodi:nodetypes="cccccccccccccccccsccsccccccccscccccccc" />
        <path
           style="fill:#000000;fill-opacity:1;stroke:none"
           d="m -92.3771,1170.54 h 8.4081 v 0 2.68 0 h -14.1265 v 0 -2.52 0 h 2.3505 l 2.6e-5,0 c -0.762188,-0.3153 -1.524375,-0.6305 -1.964604,-1.2075 -0.369504,-0.4842 -0.512188,-1.1527 -0.654873,-1.8213 l 0,0 c 0.07538,-0.5818 0.150765,-1.1636 0.429758,-1.6196 0.286556,-0.4685 0.787914,-0.8043 1.289271,-1.1402 v 0 c 0.498227,-0.1621 0.996455,-0.3242 1.505615,-0.421 0.771636,-0.1467 1.568382,-0.1435 2.365129,-0.1403 l -2.2e-5,-0 h 8.8057 v 0 2.68 0 h -8.5016 l -3.1e-5,-6e-4 c -0.94289,-0.073 -1.88578,-0.147 -2.552235,0.3128 -0.328303,0.2266 -0.589525,0.5825 -0.850746,0.9385 v 0 c 0.0628,0.2443 0.125598,0.4886 0.251423,0.6899 0.172474,0.276 0.463372,0.4713 0.754269,0.6666 v 0 c 0.359043,0.1956 0.718085,0.3912 1.096317,0.535 0.446975,0.17 0.920748,0.2677 1.394521,0.3654 z"
           id="path5833"
           sodipodi:nodetypes="cccccccccccccccccsccccccccccccccccc" />
        <path
           style="fill:#000000;stroke:none;fill-opacity:1"
           d="m -89.3015,1197.17 h -8.794 v 0 -2.68 0 h 8.7706 l -2.5e-5,-0 c 0.873393,0.063 1.746786,0.1262 2.350509,-0.3069 0.307942,-0.2209 0.545724,-0.5709 0.783506,-0.9209 h 0 c -0.05874,-0.231 -0.11748,-0.4619 -0.233879,-0.6549 -0.160656,-0.2664 -0.431152,-0.4607 -0.701649,-0.6549 h 0 c -0.368024,-0.2104 -0.736048,-0.4208 -1.125553,-0.5759 -0.458629,-0.1827 -0.947039,-0.2887 -1.43545,-0.3947 l 4.1e-5,0 h -8.4081 v 0 -2.68 0 h 20.4764 v 0 2.68 0 h -8.1859 l -6e-6,-0 c 0.221496,0.092 0.442992,0.1839 0.643172,0.3099 0.187938,0.1183 0.357088,0.2667 0.526239,0.4151 v 0 c 0.272766,0.3073 0.545532,0.6146 0.70164,0.9736 0.145825,0.3353 0.189854,0.7158 0.233883,1.0963 h 0 c -0.05408,0.4561 -0.108159,0.9122 -0.2982,1.301 -0.198905,0.4068 -0.54675,0.7399 -0.894595,1.0729 v 0 c -0.569365,0.2946 -1.13873,0.5892 -1.739493,0.763 -0.848019,0.2453 -1.758597,0.2499 -2.669176,0.2544 z"
           id="path5863"
           sodipodi:nodetypes="cccccccsccscccccccccccccccsccscccccccc" />
        <path
           d="m -95.207048,1231.4053 c 0.60141,0.022 1.20282,0.043 1.803814,0.073 0.580089,0.029 1.159791,0.066 1.739493,0.1024 l 4.1e-5,-7e-4 7.6947,0.48 h 0 v 2.43 0 l -14.3253,-1.51 h 0 v -2.6 0 l 7.2153,-1.4 -3.8e-5,0 c 0.339779,-0.048 0.679558,-0.096 1.020308,-0.1345 0.581843,-0.066 1.166516,-0.1062 1.75119,-0.1462 l 4e-5,-0 v -0.09 0 l -0.269,-0.02 -4e-6,-0 c -0.532812,-0.043 -1.065624,-0.086 -1.596243,-0.1491 -0.302573,-0.036 -0.604432,-0.078 -0.906291,-0.1199 l 3.8e-5,0 -7.2153,-1.39 0,0 v -2.61 0 l 14.3253,-1.51 h 0 v 2.44 0 l -7.6947,0.48 -4.1e-5,0 c -0.581684,0.033 -1.163368,0.067 -1.745341,0.094 -0.599117,0.028 -1.198542,0.049 -1.797966,0.07 l 4.8e-5,0 v 0.09 0 l 0.304,0.02 0,0 c 0.700481,0.043 1.400962,0.086 2.099085,0.1549 0.407882,0.04 0.814958,0.089 1.222035,0.1374 l -2e-5,0 6.6539,1.14 v 0 2.4 0 l -6.6539,1.15 2e-5,-0 c -0.356308,0.048 -0.712615,0.097 -1.070009,0.1344 -0.561479,0.059 -1.125638,0.091 -1.689797,0.1228 v 0 c -0.13449,0.01 -0.268981,0.017 -0.403444,0.026 -0.153997,0.01 -0.307958,0.021 -0.461918,0.032 l 4.8e-5,-0 v 0.1 z"
           style="fill:#000000;fill-opacity:1;stroke:none;stroke-width:0.377953;stroke-miterlimit:4;stroke-dasharray:none;stroke-opacity:1"
           id="path5905"
           sodipodi:nodetypes="cccccccccccccccccccccscccccccccccccccccccccccccccccccccccc" />
        <path
           d="m -98.095487,1242.0236 v -2.7832 h 14.126451 v 2.7832 z"
           style="fill:#000000;stroke:none;fill-opacity:1"
           id="path5927" />
        <path
           style="fill:#000000;stroke:none;fill-opacity:1"
           d="m -85.5711,1268.96 -2.0348,-1.31 4e-6,-0 c 0.210743,-0.1499 0.421486,-0.2998 0.619792,-0.4648 0.148901,-0.124 0.290789,-0.2564 0.432677,-0.3889 v 0 c 0.187593,-0.2287 0.375186,-0.4574 0.482382,-0.7192 0.106819,-0.2607 0.133807,-0.5543 0.160794,-0.8478 v 0 c -0.05157,-0.3016 -0.103146,-0.6033 -0.242655,-0.8536 -0.16281,-0.2922 -0.445384,-0.5145 -0.727957,-0.7368 v 0 c -0.589565,-0.3095 -1.179131,-0.619 -1.803814,-0.7981 -0.770316,-0.2209 -1.594032,-0.2434 -2.417749,-0.266 h 0 c -0.737992,0.021 -1.475983,0.042 -2.175099,0.2222 -0.579098,0.1493 -1.131523,0.4079 -1.683948,0.6665 v 0 c -0.339685,0.2323 -0.67937,0.4647 -0.877055,0.7894 -0.157678,0.259 -0.225015,0.5768 -0.292351,0.8946 v 0 c 0.03876,0.2345 0.07753,0.469 0.166642,0.6812 0.11283,0.2685 0.306374,0.5011 0.499918,0.7338 v 0 c 0.196798,0.2024 0.393597,0.4049 0.611015,0.5817 0.24302,0.1977 0.511801,0.3635 0.780582,0.5292 l 2.2e-5,0 -1.8477,1.62 1.1e-5,0 c -0.773829,-0.5164 -1.547658,-1.0327 -1.990912,-1.7571 -0.407236,-0.6655 -0.535438,-1.5065 -0.66364,-2.3476 v 0 c 0.09174,-0.7638 0.183488,-1.5277 0.511614,-2.1692 0.34121,-0.6671 0.938028,-1.2018 1.534847,-1.7366 v 0 c 0.777776,-0.4428 1.555553,-0.8856 2.388517,-1.1402 0.959769,-0.2933 1.992807,-0.3366 3.025845,-0.38 v 0 c 0.979296,0.041 1.958592,0.082 2.879667,0.3391 0.812749,0.2269 1.580167,0.6222 2.347584,1.0174 h 0 c 0.692146,0.5401 1.384291,1.0801 1.780426,1.7892 0.3698,0.6619 0.481638,1.4711 0.593475,2.2803 l 0,0 c -0.09752,0.7296 -0.19504,1.4591 -0.514538,2.0699 -0.343492,0.6567 -0.943556,1.1762 -1.543619,1.6956 z"
           id="path5945"
           sodipodi:nodetypes="cccccccccccccccsccsccccccccccsccsccccccccsccscc" />
        <path
           style="fill:#000000;stroke:none;fill-opacity:1"
           d="m -95.5111,1255.57 -1.871,0.79 -4.6e-5,5e-4 c -0.320611,-0.3946 -0.641221,-0.7892 -0.82443,-1.2395 -0.184459,-0.4535 -0.229635,-0.9635 -0.274811,-1.4735 h 0 c 0.05057,-0.5368 0.101136,-1.0736 0.344971,-1.5027 0.230169,-0.405 0.632547,-0.7141 1.034925,-1.0232 v 0 c 0.316491,-0.1186 0.632983,-0.2372 0.958915,-0.307 0.455473,-0.098 0.929381,-0.1 1.403289,-0.1023 l -1.3e-5,-0 h 8.6419 v 0 -2.54 0 h 2.1284 v 0 2.54 0 h 3.017 v 0 l 1.3916,2.73 v 0 h -4.4086 v 0 3.04 0 h -2.1284 v 0 -3.04 0 h -8.3378 l -3.9e-5,-0 c -0.269416,0 -0.538833,-0.01 -0.803965,0.026 -0.142126,0.019 -0.28302,0.049 -0.423914,0.079 v 3e-4 c -0.136415,0.076 -0.272831,0.1528 -0.35082,0.2689 -0.0751,0.1119 -0.09602,0.2606 -0.116941,0.4093 v 0 c 0.03544,0.2244 0.07087,0.4488 0.154946,0.652 0.104679,0.2529 0.284758,0.4729 0.464837,0.6928 z"
           id="path5981"
           sodipodi:nodetypes="ccccccscccccccccccccccccccccccccccccccccccc" />
        <path
           d="m -81.092288,1242.1171 v -2.9703 h 3.204179 v 2.9703 z"
           style="fill:#000000;stroke:none;fill-opacity:1"
           id="path5997" />
        <path
           d="m -88.903935,1215.4897 c 0.342409,-0.4637 0.684819,-0.9273 1.08462,-1.336 0.305997,-0.3129 0.645613,-0.5935 0.985229,-0.8742 v 0 c 0.57341,-0.3477 1.146821,-0.6955 1.768733,-0.8946 0.579083,-0.1853 1.200216,-0.2418 1.82135,-0.2982 v 0 c 0.645206,0.042 1.290412,0.083 1.876903,0.2924 0.546589,0.1951 1.04218,0.5361 1.537771,0.877 v 0 c 0.456983,0.4852 0.913966,0.9704 1.175254,1.5436 0.272888,0.5987 0.33232,1.2934 0.391753,1.988 h 0 c -0.09151,0.7964 -0.183015,1.5929 -0.49115,2.2921 -0.327755,0.7437 -0.900605,1.3776 -1.473454,2.0114 l 2.6e-5,-0 -2.0348,-1.44 1e-6,0 c 0.23093,-0.1662 0.461859,-0.3324 0.66364,-0.5292 0.161557,-0.1575 0.304427,-0.3345 0.447298,-0.5116 h 0 c 0.129538,-0.2483 0.259077,-0.4966 0.33328,-0.7601 0.08111,-0.288 0.0961,-0.5942 0.111093,-0.9004 v 0 c -0.02768,-0.317 -0.05537,-0.6341 -0.187106,-0.9005 -0.124825,-0.2524 -0.343068,-0.4595 -0.561311,-0.6665 h 0 c -0.258684,-0.15 -0.517368,-0.2999 -0.795197,-0.3859 -0.311401,-0.096 -0.646852,-0.1126 -0.982304,-0.1287 v 0 c -0.362467,0.03 -0.724934,0.06 -1.061237,0.1696 -0.346976,0.113 -0.666102,0.3109 -0.985228,0.5087 v 0 c -0.202593,0.1806 -0.405185,0.3613 -0.593476,0.5554 -0.297664,0.307 -0.559587,0.6476 -0.82151,0.9882 l -4.3e-5,-0 -0.6782,0.87 -0.175423,0.2193 c -0.396464,0.5034 -0.792928,1.0067 -1.239575,1.4618 -0.318245,0.3243 -0.661966,0.624 -1.005688,0.9238 v 0 c -0.500459,0.307 -1.000919,0.6139 -1.543623,0.7894 -0.555225,0.1795 -1.154667,0.2213 -1.754109,0.2631 v 0 c -0.713316,-0.033 -1.426631,-0.066 -2.084474,-0.2777 -0.577108,-0.1859 -1.111524,-0.5096 -1.64594,-0.8332 v 0 c -0.497712,-0.5105 -0.995425,-1.0209 -1.280495,-1.6284 -0.310951,-0.6627 -0.368894,-1.4408 -0.426837,-2.219 v 0 c 0.137636,-0.9898 0.275272,-1.9797 0.707488,-2.8124 0.472647,-0.9107 1.297562,-1.6335 2.122478,-2.3564 l -2e-6,-3e-4 2.0815,1.44 4.7e-5,-0 c -0.689271,0.5344 -1.378543,1.0689 -1.780426,1.7775 -0.317121,0.5592 -0.455296,1.2268 -0.59347,1.8944 v 0 c 0.03267,0.2916 0.06535,0.5832 0.181258,0.8362 0.120893,0.2638 0.332334,0.4856 0.543774,0.7075 v 0 c 0.273336,0.1593 0.546672,0.3186 0.839051,0.4122 0.401874,0.1286 0.839724,0.133 1.277575,0.1374 v 0 c 0.448264,-0.026 0.896529,-0.053 1.300968,-0.2017 0.365976,-0.1348 0.696066,-0.37 1.026156,-0.6052 h 0 c 0.220235,-0.2279 0.44047,-0.4557 0.646096,-0.6958 0.30048,-0.3509 0.569765,-0.728 0.83905,-1.1051 z"
           style="fill:#000000;stroke:none;fill-opacity:1"
           id="path6015"
           sodipodi:nodetypes="ccccccccccsccscccccccsccscccccccccccccsccccccccscccccccscccccccccccscc" />
        <path
           style="fill:#000000;stroke:none;fill-opacity:1"
           d="m -87.5474,1218.18 0.1754,-0.22 v 0 z"
           id="path6041"
           sodipodi:nodetypes="ccccc" />
        <path
           style="fill:#000000;stroke:none;fill-opacity:1"
           d="m -96.4466,1175.96 1.9412,1.37 -4e-6,0 c -0.46662,0.5042 -0.933241,1.0083 -1.201566,1.605 -0.234318,0.5211 -0.317419,1.1128 -0.400521,1.7044 v 0 c 0.05508,0.5726 0.110166,1.1451 0.429757,1.4735 0.287276,0.2952 0.788274,0.3932 1.289272,0.4911 v 0 c 0.203328,-0.025 0.406655,-0.051 0.593475,-0.1198 0.218762,-0.081 0.414889,-0.22 0.611016,-0.3596 v 0 c 0.211558,-0.1713 0.423115,-0.3426 0.596399,-0.5467 0.157515,-0.1856 0.283404,-0.3983 0.409293,-0.611 l -2.1e-5,0 0.5964,-1.22 2e-5,0 c 0.23742,-0.462 0.474839,-0.924 0.780577,-1.3361 0.263416,-0.355 0.577546,-0.673 0.891675,-0.991 v 0 c 0.335091,-0.225 0.670181,-0.4499 1.037844,-0.5789 0.410487,-0.144 0.861576,-0.1685 1.312665,-0.1929 v 0 c 0.549661,0.04 1.099322,0.08 1.5904,0.2718 0.463587,0.1814 0.874967,0.4986 1.286347,0.8157 l 0,0 c 0.340936,0.4161 0.681873,0.8322 0.877055,1.3068 0.210888,0.5128 0.25162,1.094 0.292351,1.6752 v 0 c -0.07313,0.781 -0.146261,1.562 -0.418061,2.2657 -0.278753,0.7217 -0.766472,1.3622 -1.254191,2.0026 l 1.8e-5,-0 -2.1868,-1.19 -1.3e-5,-0 c 0.424853,-0.4547 0.849705,-0.9094 1.096326,-1.45 0.199799,-0.438 0.282618,-0.9324 0.365436,-1.4267 h 0 c -0.0092,-0.2111 -0.0185,-0.4222 -0.07601,-0.6198 -0.05085,-0.1747 -0.139445,-0.3388 -0.228035,-0.5028 h -3e-6 c -0.156662,-0.1705 -0.313325,-0.3409 -0.50577,-0.4386 -0.211807,-0.1075 -0.466958,-0.1268 -0.722109,-0.1461 v 0 c -0.266415,0.024 -0.532831,0.049 -0.768885,0.1461 -0.235513,0.098 -0.440805,0.268 -0.646096,0.4386 v 0 c -0.108288,0.1337 -0.216577,0.2675 -0.31282,0.4093 -0.133325,0.1963 -0.243534,0.408 -0.353744,0.6197 l 2.3e-5,0 -0.7134,1.39 h 3.6e-5 c -0.226523,0.3898 -0.453046,0.7796 -0.7338,1.1256 -0.271269,0.3343 -0.593166,0.6276 -0.915064,0.9209 v 0 c -0.389066,0.2829 -0.778132,0.5659 -1.213258,0.728 -0.399923,0.1489 -0.838753,0.1958 -1.277584,0.2426 h 0 c -0.613175,-0.047 -1.226349,-0.094 -1.757033,-0.3303 -0.49518,-0.2205 -0.918538,-0.6058 -1.341897,-0.9911 v 0 c -0.313528,-0.4663 -0.627056,-0.9325 -0.806894,-1.4442 -0.201084,-0.5722 -0.235023,-1.2012 -0.268963,-1.8302 v 0 c 0.09348,-0.8785 0.186955,-1.7569 0.52623,-2.5259 0.350925,-0.7953 0.964816,-1.4735 1.578708,-2.1517 z"
           id="path6053"
           sodipodi:nodetypes="cccsccscccccccccccccccccccsccsccccsccscccccccccccccscccccsccsccccc" />
        <path
           d="m -78.695003,1156.3644 c -0.02567,0.7199 -0.05133,1.4398 -0.274812,2.0962 -0.184715,0.5425 -0.504572,1.0416 -0.824429,1.5407 h 0 c -0.209908,0.2191 -0.419816,0.4383 -0.654868,0.6256 -0.260128,0.2073 -0.551051,0.3755 -0.841975,0.5438 v 0 c -0.515264,0.2319 -1.030528,0.4638 -1.569931,0.5964 -0.562342,0.1382 -1.15092,0.1685 -1.739497,0.1988 v 0 c -0.934998,-0.028 -1.869997,-0.055 -2.721793,-0.345 -0.683793,-0.2325 -1.313968,-0.6337 -1.944144,-1.0349 v 0 c -0.260433,-0.273 -0.520867,-0.546 -0.722113,-0.8566 -0.226263,-0.3493 -0.377709,-0.7462 -0.529154,-1.1431 v 0 c -0.105734,-0.3581 -0.211467,-0.7162 -0.271887,-1.0817 -0.0607,-0.3672 -0.07566,-0.742 -0.09063,-1.1168 l 3.6e-5,0 v -1.05 0 h -7.2153 v 0 -2.76 0 h 19.4005 v 0 3.78 z"
           style="fill:#000000;stroke:none;fill-opacity:1"
           id="path6103"
           sodipodi:nodetypes="csccscccccccccccscccccccccccc" />
        <path
           d="m -98.095487,1144.4481 v -3.9292 h 3.929211 v 3.9292 z"
           style="fill:#000000;stroke:none;fill-opacity:1"
           id="path6119" />
        <path
           d="m -50.196523,1235.1241 7.180165,3.8122 6.946286,-3.4497 v 2.9001 l -5.051843,2.2219 5.051843,2.2219 v 2.8299 l -6.946286,-3.4731 -7.180165,3.7889 v -3.0639 l 5.192171,-2.3973 -5.192171,-2.3037 z"
           style="fill:#000000;stroke:none;fill-opacity:1"
           id="path6121"
           sodipodi:nodetypes="ccccccccccccc" />
        <path
           d="m -45.986654,1211.198 h 2.46745 l 12.840105,6.0341 v 3.1107 H -43.56598 v 1.871 h -2.420674 v -1.871 h -4.209869 v -2.5844 h 4.209869 z"
           style="fill:#000000;stroke:none;fill-opacity:1"
           id="path6123"
           sodipodi:nodetypes="cccccccccccc" />
        <path
           style="fill:#000000;stroke:none;stroke-linecap:butt;fill-opacity:1"
           d="m -46.8403,1178.86 h 8.6419 v 0 -2.53 0 h 2.1283 v 0 2.53 0 h 3.0171 v 0 l 1.3916,2.73 v 0 h -4.4087 v 0 3.04 0 h -2.1283 v 0 -3.04 0 h -8.3379 l 2.4e-5,-0 c -0.269418,0 -0.538835,-0.01 -0.803968,0.026 -0.142125,0.019 -0.283018,0.049 -0.423911,0.079 l 0,2e-4 c -0.136416,0.076 -0.272832,0.1528 -0.35082,0.269 -0.0751,0.1118 -0.09602,0.2605 -0.116942,0.4093 v 0 c 0.03544,0.2244 0.07087,0.4488 0.154946,0.6519 0.10468,0.2529 0.28476,0.4729 0.46484,0.6929 l 3.1e-5,0 -1.8711,0.79 1.6e-5,0 c -0.320612,-0.3946 -0.641225,-0.7892 -0.824434,-1.2396 -0.184461,-0.4534 -0.229636,-0.9634 -0.274812,-1.4734 l 0,0 c 0.05057,-0.5368 0.10114,-1.0736 0.344977,-1.5027 0.230169,-0.4051 0.632548,-0.7142 1.034926,-1.0233 v 0 c 0.316492,-0.1185 0.632983,-0.2371 0.958916,-0.3069 0.455472,-0.098 0.92938,-0.1 1.403289,-0.1024 z"
           id="path6153"
           sodipodi:nodetypes="cccccccccccccccccccccccccccccsccccsccsccccc" />
        <path
           style="fill:#000000;stroke:none;fill-opacity:1"
           d="m -41.4377,1156.21 0.4327,-0.59 v 0 z"
           id="path6175"
           sodipodi:nodetypes="ccccc" />
        <path
           d="m -41.004975,1155.616 c 0.342412,-0.4637 0.684824,-0.9273 1.084626,-1.3361 0.305996,-0.3128 0.645611,-0.5934 0.985226,-0.8741 h 0 c 0.57341,-0.3478 1.14682,-0.6955 1.768731,-0.8946 0.579083,-0.1853 1.200218,-0.2418 1.821353,-0.2982 v 0 c 0.645205,0.042 1.290411,0.083 1.876901,0.2924 0.546589,0.1951 1.04218,0.5361 1.537771,0.877 v 0 c 0.456984,0.4852 0.913967,0.9704 1.175256,1.5436 0.272887,0.5987 0.332319,1.2934 0.391751,1.988 v 0 c -0.09151,0.7964 -0.183017,1.5928 -0.491151,2.2921 -0.327756,0.7437 -0.900605,1.3776 -1.473455,2.0114 l -3.4e-5,0 -2.0347,-1.44 -3.6e-5,-9e-4 c 0.230929,-0.1662 0.461858,-0.3324 0.663639,-0.5292 0.161556,-0.1575 0.304427,-0.3345 0.447298,-0.5116 v 0 c 0.12954,-0.2483 0.259079,-0.4966 0.333282,-0.7601 0.08111,-0.288 0.0961,-0.5942 0.111094,-0.9004 v 0 c -0.02768,-0.317 -0.05537,-0.6341 -0.187106,-0.9005 -0.124825,-0.2524 -0.34307,-0.4595 -0.561316,-0.6665 v 0 c -0.258684,-0.15 -0.517367,-0.2999 -0.795197,-0.386 -0.3114,-0.096 -0.646851,-0.1125 -0.982303,-0.1286 v 0 c -0.362467,0.03 -0.724934,0.06 -1.061238,0.1696 -0.346975,0.113 -0.666101,0.3109 -0.985226,0.5087 v 0 c -0.202592,0.1806 -0.405184,0.3613 -0.593475,0.5554 -0.297663,0.307 -0.559586,0.6476 -0.821509,0.9882 l -7e-6,0 -0.6783,0.86 v 0 l -0.1754,0.23 3.8e-5,-0 c -0.396462,0.5034 -0.792925,1.0067 -1.239572,1.4618 -0.318245,0.3243 -0.661967,0.624 -1.00569,0.9238 v 0 c -0.500457,0.307 -1.000915,0.6139 -1.543618,0.7894 -0.555226,0.1795 -1.15467,0.2213 -1.754114,0.2631 v 0 c -0.713314,-0.033 -1.426628,-0.066 -2.084469,-0.2777 -0.57711,-0.1859 -1.111527,-0.5096 -1.645944,-0.8332 v 0 c -0.497716,-0.5105 -0.995432,-1.0209 -1.280502,-1.6284 -0.31095,-0.6627 -0.368891,-1.4408 -0.426833,-2.219 v 0 c 0.137638,-0.9898 0.275276,-1.9797 0.707493,-2.8124 0.472646,-0.9107 1.29756,-1.6335 2.122473,-2.3564 l 3.8e-5,0 2.0815,1.43 1e-5,0.01 c -0.689271,0.5344 -1.378541,1.0689 -1.780424,1.7775 -0.317123,0.5592 -0.455299,1.2268 -0.593475,1.8944 v 0 c 0.03267,0.2916 0.06535,0.5832 0.181258,0.8362 0.120893,0.2638 0.332334,0.4856 0.543775,0.7075 v 0 c 0.273336,0.1593 0.546673,0.3186 0.839052,0.4122 0.401876,0.1286 0.839726,0.133 1.277577,0.1374 v 0 c 0.448264,-0.026 0.896528,-0.053 1.300966,-0.2017 0.365976,-0.1348 0.696066,-0.37 1.026157,-0.6052 v 0 c 0.220235,-0.2279 0.440471,-0.4557 0.646097,-0.6958 0.300482,-0.3509 0.569766,-0.728 0.839051,-1.1051 z"
           style="fill:#000000;stroke:none;fill-opacity:1"
           id="path6177"
           sodipodi:nodetypes="ccccccccccsccccccccccsccscccccccccccccccsccccccccscccccccscccccccccccscc" />
        <path
           d="m -32.760647,1128.6845 c 0.270475,0.7025 0.54095,1.4051 0.888751,2.067 0.346448,0.6593 0.769622,1.2783 1.192797,1.8973 l -10e-7,0 v 1.94 0 h -19.5174 v 0 -2.7 0 h 16.3834 l -1.4e-5,-0 c -0.199407,-0.3731 -0.398815,-0.7461 -0.570087,-1.1314 -0.229579,-0.5165 -0.408603,-1.0549 -0.587628,-1.5933 l 2.9e-5,-0 2.2102,-0.48 z"
           style="fill:#000000;stroke:none;fill-opacity:1"
           id="path6223"
           sodipodi:nodetypes="csccccccccccscccc" />
        <path
           d="m -5.291339,1133.8583 a 6.047244,6.047244 0 1 0 -12.094488,0 6.047244,6.047244 0 1 0 12.094488,0 z"
           style="fill:none;stroke:#ff0000;stroke-opacity:1"
           id="path6227" />
        <path
           d="m -5.291339,1288.8189 a 6.047244,6.047244 0 1 0 -12.094488,0 6.047244,6.047244 0 1 0 12.094488,0 z"
           style="fill:none;stroke:#ff0000;stroke-opacity:1"
           id="path6229" />
        <path
           d="m -141.88346,1128.7559 a 3.77953,3.77953 0 1 0 -7.55906,0 3.77953,3.77953 0 1 0 7.55906,0 z"
           style="fill:none;stroke:#ff0000;stroke-opacity:1"
           id="path6231" />
        <path
           d="m -141.88346,1292.5984 a 3.77953,3.77953 0 1 0 -7.55906,0 3.77953,3.77953 0 1 0 7.55906,0 z"
           style="fill:none;stroke:#ff0000;stroke-opacity:1"
           id="path6233" />
        <path
           d="m -41.045669,1274.7591 a 11.338583,11.338583 0 1 0 -22.677166,0 11.338583,11.338583 0 1 0 22.677166,0 z"
           style="fill:none;stroke:#ff0000;stroke-opacity:1"
           id="path6235" />
        <path
           style="fill:#000000;stroke:#000000;fill-opacity:1"
           d="m -33.4506,1202.65 h -4.0812 v 0 z"
           id="path6303"
           sodipodi:nodetypes="cccc" />
        <path
           style="fill:#000000;stroke:none;fill-opacity:1"
           d="m -89.3366,1216.09 0.4327,-0.6 v 0 z"
           id="path6579"
           sodipodi:nodetypes="ccccc" />
        <path
           d="m -181.46661,1192.6468 v 18.0663 l 14.2442,-9.0418 z"
           style="fill:#fffffd;stroke:none;fill-opacity:1"
           id="path6795" />
        <path
           d="m -178.59621,1200.6749 c 0.14042,0.1471 0.28084,0.2943 0.36165,0.4699 0.07,0.1522 0.0953,0.3258 0.12054,0.4994 v 0 c -0.0181,0.1914 -0.0362,0.3827 -0.11015,0.5494 -0.0734,0.1654 -0.20196,0.3065 -0.33048,0.4476 v 0 c -0.13271,0.1 -0.26541,0.1993 -0.4145,0.2562 -0.1465,0.056 -0.30882,0.071 -0.47114,0.085 v 4e-4 c -0.17566,-0.01 -0.35131,-0.019 -0.4998,-0.089 -0.12676,-0.06 -0.23371,-0.164 -0.34067,-0.268 v -3e-4 c -0.14148,-0.1487 -0.28297,-0.2974 -0.36435,-0.4748 -0.0708,-0.1543 -0.0962,-0.3304 -0.12145,-0.5065 v 0 c 0.019,-0.1881 0.038,-0.3761 0.1102,-0.5408 0.0735,-0.1677 0.20205,-0.3111 0.33062,-0.4545 v 0 c 0.13098,-0.097 0.26195,-0.1933 0.40848,-0.2485 0.14836,-0.056 0.31266,-0.069 0.47697,-0.083 v 1e-4 c 0.17655,0.01 0.35311,0.019 0.50241,0.089 0.12704,0.06 0.23436,0.1639 0.34167,0.268 z"
           style="fill:#000000;stroke:none;fill-opacity:1"
           id="path6799"
           sodipodi:nodetypes="cccccccccccccsccscccccccc" />
        <path
           style="fill:#000000;stroke:none;fill-opacity:1"
           d="m -177.885,1202.18 v -1.06 l 2.2e-4,0 c 0.65956,-0.063 1.31911,-0.1263 1.9767,-0.2056 0.77261,-0.093 1.5425,-0.2087 2.31239,-0.3242 h 0 c 0.44117,-0.067 0.88235,-0.1335 1.32513,-0.1876 0.18193,-0.022 0.36414,-0.042 0.54634,-0.063 v 4e-4 c 0.17514,0.015 0.35029,0.029 0.50738,0.091 0.15501,0.06 0.29244,0.1661 0.42987,0.2717 v -4e-4 c 0.11701,0.132 0.23401,0.2641 0.30088,0.4178 0.0676,0.1555 0.0839,0.3331 0.10029,0.5107 v 0 c -0.0186,0.2175 -0.0372,0.435 -0.12492,0.6203 -0.0833,0.176 -0.22903,0.323 -0.37474,0.4699 v 0 c -0.12764,0.086 -0.25528,0.1727 -0.39594,0.2221 -0.13912,0.049 -0.29097,0.061 -0.44282,0.074 v 0 c -0.23468,-0.019 -0.46937,-0.038 -0.70299,-0.066 -0.41206,-0.049 -0.82082,-0.123 -1.22959,-0.1975 v 10e-5 c -0.73513,-0.1162 -1.47026,-0.2323 -2.20773,-0.3311 -0.67212,-0.09 -1.34619,-0.1656 -2.02025,-0.2413 z"
           id="path6817"
           sodipodi:nodetypes="cccccccccccccccsccccccccccc" />
        <path
           d="m -88.494642,1156.1773 c 0.02735,0.4858 0.05471,0.9716 0.251423,1.3799 0.168541,0.3498 0.461405,0.6427 0.754269,0.9355 v 0 c 0.372522,0.1728 0.745043,0.3456 1.134326,0.4473 0.543437,0.1421 1.119539,0.1456 1.69564,0.1491 v 0 c 0.550463,0 1.100926,-0.01 1.613784,-0.1578 0.371793,-0.1076 0.723823,-0.2906 1.075853,-0.4736 h 0 c 0.255462,-0.2757 0.510924,-0.5513 0.657792,-0.8742 0.169384,-0.3723 0.194325,-0.8074 0.219267,-1.2425 l -1.2e-5,-10e-4 v -1 0 h -7.4023 0 v 0.84 z"
           style="fill:#ffffff;stroke:none;fill-opacity:1"
           id="path6839"
           sodipodi:nodetypes="csccccccccccccccccc" />
        <path
           d="m -41.507819,1170.3973 c 0.524757,-0.028 1.049513,-0.056 1.555312,-0.1725 0.393556,-0.09 0.775634,-0.2337 1.157713,-0.3771 v 0 c 0.268096,-0.1438 0.536192,-0.2876 0.692874,-0.5145 0.122071,-0.1769 0.176515,-0.4042 0.230959,-0.6315 v 0 c -0.05622,-0.2127 -0.112431,-0.4255 -0.228035,-0.5935 -0.155968,-0.2267 -0.420036,-0.3721 -0.684104,-0.5175 v 0 c -0.388167,-0.1583 -0.776334,-0.3167 -1.178177,-0.418 -0.501324,-0.1264 -1.023933,-0.1641 -1.546542,-0.2018 l 1.9e-5,-9e-4 v 3.43 z"
           style="fill:#ffffff;stroke:none;fill-opacity:1"
           id="path6863"
           sodipodi:nodetypes="cccccccsccscccc" />
        <path
           d="m -39.180698,1217.8753 c 0.852843,0.011 1.705685,0.022 2.55808,0.047 1.069504,0.032 2.138304,0.086 3.207103,0.1403 l 1.5e-5,-0 v -0.09 0 l -0.3275,-0.11 5e-5,0 c -0.75351,-0.2398 -1.507021,-0.4795 -2.245263,-0.7601 -0.527533,-0.2005 -1.04727,-0.4218 -1.567007,-0.6432 l 2e-5,-3e-4 -6.0108,-2.86 v 0 4.28 0 h 4.3853 z"
           style="fill:#ffffff;stroke:none;fill-opacity:1"
           id="path6851"
           sodipodi:nodetypes="ccccccccscccccccc" />
        <path
           d="m -165.54331,1225.7008 h -2.56747 a 5.858268,5.858268 0 0 1 -11.49498,0 h -2.56747 v 31.748 h 16.62992 z"
           style="fill:#ffffff;stroke:#000000;fill-opacity:1;stroke-opacity:1;stroke-width:0.75590552;stroke-miterlimit:4;stroke-dasharray:none"
           id="path6793" />
      </g>
    </g>
  </g>
</svg>
